<?xml version="1.0" encoding="utf-8"?>
<svg xmlns="http://www.w3.org/2000/svg"
	xmlns:xlink="http://www.w3.org/1999/xlink"
	width="45px" height="50px" viewBox="0 0 45 50">
<filter filterUnits="objectBoundingBox" x="0.00" y="0.00" width="100.00" height="100.00" id="filter0">
<feFlood flood-color="rgb(255,255,255)" result="coFloodOut1"/>
<feComposite in="coFloodOut1" in2="SourceAlpha" operator="in" result="coOverlay1"/>
<feBlend in="coOverlay1" in2="SourceGraphic" mode="normal" result="colorOverlay1"/>
</filter>
<g transform="matrix(0.85 0.00 0.00 0.85 0.00 0.00)" filter="url(#filter0)"><path fillRule="evenodd" d="M 42.5 59C 40.14 59 37.86 58.47 36.02 57.52 34.24 58.45 31.99 59 29.5 59 27.48 59 25.62 58.63 24.04 58 24.04 58 0 58 0 58 0 58 0-0 0-0 0-0 32-0 32-0 32-0 34-0 34-0 34-0 35-0 35-0 35-0 37-0 37-0 37-0 38-0 38-0 38-0 40-0 40-0 40-0 43-0 43-0 43-0 43 17.02 43 17.02 48.64 17.19 53 20.19 53 24 53 24 53 28 53 28 53 28 53 32 53 32 53 32 53 36 53 36 53 36 53 40 53 40 53 40 53 44 53 44 53 44 53 48 53 48 53 48 53 52 53 52 53 55.92 48.39 59 42.5 59ZM 42.5 57C 47.01 57 50.84 54.8 50.99 52.16 50.95 52.21 50.89 52.24 50.85 52.29 50.7 52.41 50.54 52.54 50.38 52.66 50.29 52.73 50.2 52.8 50.11 52.86 49.93 52.98 49.75 53.1 49.56 53.21 49.47 53.27 49.39 53.32 49.3 53.37 49.01 53.53 48.72 53.68 48.41 53.82 48.4 53.83 48.38 53.83 48.37 53.83 48.07 53.97 47.76 54.09 47.44 54.2 47.33 54.24 47.22 54.27 47.11 54.3 46.88 54.38 46.64 54.45 46.4 54.51 46.27 54.55 46.14 54.58 46 54.61 45.77 54.66 45.53 54.71 45.29 54.75 45.15 54.78 45.02 54.8 44.87 54.82 44.61 54.86 44.35 54.89 44.08 54.92 43.96 54.93 43.83 54.94 43.71 54.95 43.31 54.98 42.91 55 42.5 55 42 55 41.5 54.97 41.01 54.92 40.91 54.91 40.8 54.9 40.7 54.89 40.22 54.84 39.75 54.76 39.29 54.67 39.27 54.66 39.25 54.66 39.24 54.66 38.9 55.21 38.47 55.73 37.94 56.2 39.3 56.72 40.87 57 42.5 57ZM 50.85 32.28C 50.7 32.41 50.54 32.54 50.38 32.66 50.29 32.73 50.2 32.79 50.11 32.86 49.93 32.98 49.75 33.1 49.56 33.21 49.47 33.27 49.39 33.32 49.3 33.37 49.01 33.53 48.72 33.68 48.41 33.82 48.4 33.83 48.38 33.83 48.37 33.83 48.07 33.97 47.76 34.09 47.44 34.2 47.33 34.24 47.22 34.27 47.11 34.3 46.88 34.38 46.64 34.45 46.4 34.51 46.27 34.55 46.14 34.58 46 34.61 45.77 34.66 45.53 34.71 45.29 34.75 45.15 34.78 45.02 34.8 44.87 34.82 44.61 34.86 44.35 34.89 44.08 34.92 43.96 34.93 43.83 34.94 43.71 34.95 43.31 34.98 42.91 35 42.5 35 42.06 35 41.63 34.98 41.19 34.94 41.05 34.93 40.91 34.91 40.77 34.89 40.48 34.86 40.19 34.83 39.91 34.78 39.89 34.78 39.86 34.78 39.84 34.77 39.85 34.83 39.86 34.88 39.87 34.94 39.9 35.07 39.93 35.21 39.95 35.34 39.98 35.56 40 35.78 40 36 40 36 40 36.74 40 36.74 40.19 36.78 40.38 36.82 40.57 36.85 40.71 36.87 40.86 36.89 41.01 36.91 41.5 36.96 42 37 42.5 37 42.78 37 43.07 36.99 43.34 36.97 43.44 36.97 43.53 36.96 43.62 36.95 43.8 36.93 43.99 36.92 44.17 36.9 44.28 36.88 44.38 36.87 44.49 36.85 44.65 36.83 44.81 36.8 44.97 36.77 45.08 36.75 45.19 36.73 45.3 36.7 45.45 36.67 45.6 36.64 45.74 36.61 45.85 36.58 45.96 36.55 46.06 36.52 46.2 36.48 46.34 36.44 46.47 36.4 46.58 36.36 46.68 36.32 46.79 36.29 46.92 36.24 47.05 36.2 47.17 36.15 47.27 36.11 47.37 36.06 47.47 36.02 47.59 35.97 47.71 35.92 47.82 35.86 47.92 35.82 48.01 35.77 48.11 35.72 48.22 35.66 48.32 35.6 48.43 35.54 48.52 35.49 48.6 35.44 48.69 35.38 48.79 35.32 48.89 35.26 48.98 35.19 49.06 35.13 49.14 35.07 49.21 35.02 49.3 34.95 49.39 34.88 49.47 34.81 49.55 34.75 49.61 34.69 49.68 34.62 49.76 34.55 49.84 34.48 49.91 34.41 49.97 34.34 50.03 34.27 50.09 34.2 50.15 34.13 50.22 34.06 50.27 33.98 50.33 33.91 50.37 33.84 50.42 33.76 50.47 33.69 50.53 33.61 50.57 33.53 50.61 33.46 50.65 33.38 50.68 33.31 50.72 33.22 50.76 33.14 50.79 33.06 50.82 32.99 50.84 32.91 50.87 32.83 50.89 32.75 50.92 32.66 50.93 32.58 50.95 32.5 50.96 32.42 50.97 32.34 50.98 32.28 50.98 32.23 50.98 32.17 50.94 32.21 50.89 32.25 50.85 32.28ZM 50.98 28.17C 50.94 28.21 50.89 28.25 50.85 28.29 50.7 28.41 50.54 28.54 50.38 28.66 50.29 28.73 50.2 28.8 50.11 28.86 49.93 28.98 49.75 29.1 49.56 29.21 49.47 29.27 49.39 29.32 49.3 29.37 49.01 29.53 48.72 29.68 48.41 29.82 48.4 29.83 48.38 29.83 48.37 29.83 48.07 29.97 47.76 30.09 47.44 30.2 47.33 30.24 47.22 30.27 47.11 30.3 46.88 30.38 46.64 30.45 46.4 30.51 46.27 30.55 46.14 30.58 46 30.61 45.77 30.66 45.53 30.71 45.29 30.75 45.15 30.78 45.02 30.8 44.87 30.82 44.61 30.86 44.35 30.89 44.08 30.92 43.96 30.93 43.83 30.94 43.71 30.95 43.31 30.98 42.91 31 42.5 31 42.09 31 41.69 30.98 41.29 30.95 41.17 30.94 41.04 30.93 40.92 30.91 40.65 30.89 40.39 30.86 40.13 30.82 39.98 30.8 39.85 30.77 39.71 30.75 39.47 30.71 39.23 30.66 39 30.61 38.86 30.57 38.73 30.54 38.6 30.51 38.36 30.45 38.12 30.38 37.89 30.3 37.78 30.27 37.67 30.24 37.56 30.2 37.24 30.09 36.92 29.97 36.62 29.83 36.61 29.83 36.6 29.82 36.59 29.82 36.28 29.68 35.99 29.53 35.7 29.37 35.61 29.32 35.53 29.27 35.44 29.21 35.25 29.1 35.07 28.98 34.89 28.86 34.8 28.79 34.71 28.73 34.62 28.66 34.46 28.54 34.3 28.41 34.15 28.28 34.11 28.24 34.05 28.21 34 28.16 34.04 28.75 34.26 29.32 34.65 29.88 36.27 30.47 37.6 31.34 38.53 32.4 38.68 32.45 38.83 32.49 38.97 32.53 39.1 32.56 39.23 32.6 39.36 32.63 39.57 32.68 39.78 32.72 39.99 32.76 40.12 32.79 40.25 32.82 40.38 32.84 40.62 32.87 40.85 32.9 41.09 32.92 41.21 32.93 41.32 32.95 41.43 32.96 41.78 32.98 42.14 33 42.5 33 42.78 33 43.07 32.99 43.34 32.97 43.44 32.97 43.53 32.96 43.62 32.95 43.8 32.93 43.99 32.92 44.17 32.9 44.28 32.89 44.38 32.87 44.49 32.85 44.65 32.83 44.81 32.8 44.97 32.78 45.08 32.76 45.19 32.73 45.3 32.7 45.45 32.67 45.6 32.64 45.74 32.61 45.85 32.58 45.96 32.55 46.06 32.52 46.2 32.48 46.34 32.44 46.47 32.4 46.58 32.36 46.68 32.33 46.79 32.29 46.92 32.24 47.05 32.2 47.17 32.15 47.27 32.11 47.37 32.06 47.47 32.02 47.59 31.97 47.71 31.92 47.82 31.86 47.92 31.82 48.01 31.77 48.11 31.72 48.22 31.66 48.32 31.6 48.43 31.54 48.52 31.49 48.6 31.44 48.69 31.38 48.79 31.32 48.89 31.26 48.98 31.19 49.06 31.14 49.14 31.08 49.21 31.02 49.3 30.95 49.39 30.88 49.47 30.81 49.55 30.75 49.61 30.69 49.68 30.62 49.76 30.55 49.84 30.48 49.91 30.41 49.97 30.34 50.03 30.27 50.09 30.2 50.15 30.13 50.22 30.06 50.27 29.98 50.33 29.91 50.37 29.84 50.42 29.76 50.47 29.69 50.53 29.61 50.57 29.53 50.61 29.46 50.65 29.38 50.68 29.31 50.72 29.23 50.76 29.14 50.79 29.06 50.82 28.99 50.84 28.91 50.87 28.83 50.89 28.75 50.92 28.66 50.93 28.58 50.95 28.5 50.96 28.42 50.97 28.34 50.98 28.28 50.98 28.23 50.98 28.17ZM 50.85 36.28C 50.7 36.41 50.54 36.54 50.38 36.66 50.29 36.73 50.2 36.79 50.11 36.86 49.93 36.98 49.75 37.1 49.56 37.21 49.47 37.27 49.39 37.32 49.3 37.37 49.01 37.53 48.72 37.68 48.41 37.82 48.4 37.83 48.38 37.83 48.37 37.83 48.07 37.97 47.76 38.09 47.44 38.2 47.33 38.24 47.22 38.27 47.11 38.3 46.88 38.38 46.64 38.45 46.4 38.51 46.27 38.55 46.14 38.58 46 38.61 45.77 38.66 45.53 38.71 45.29 38.75 45.15 38.78 45.02 38.8 44.87 38.82 44.61 38.86 44.35 38.89 44.08 38.92 43.96 38.93 43.83 38.94 43.71 38.95 43.31 38.98 42.91 39 42.5 39 42.12 39 41.74 38.98 41.36 38.95 41.25 38.95 41.14 38.93 41.03 38.92 40.75 38.9 40.48 38.86 40.21 38.82 40.14 38.81 40.07 38.81 40 38.8 40 38.8 40 40 40 40 40 40 40 40.74 40 40.74 40.19 40.78 40.38 40.82 40.57 40.85 40.71 40.87 40.86 40.89 41.01 40.91 41.5 40.96 42 41 42.5 41 42.78 41 43.07 40.99 43.34 40.97 43.44 40.97 43.53 40.96 43.62 40.95 43.8 40.93 43.99 40.92 44.17 40.9 44.28 40.88 44.38 40.87 44.49 40.85 44.65 40.83 44.81 40.8 44.97 40.77 45.08 40.75 45.19 40.73 45.3 40.7 45.45 40.67 45.6 40.64 45.74 40.61 45.85 40.58 45.96 40.55 46.06 40.52 46.2 40.48 46.34 40.44 46.47 40.4 46.58 40.36 46.68 40.32 46.79 40.29 46.92 40.24 47.05 40.2 47.17 40.15 47.27 40.11 47.37 40.06 47.47 40.02 47.59 39.97 47.71 39.92 47.82 39.86 47.92 39.82 48.01 39.77 48.11 39.72 48.22 39.66 48.32 39.6 48.43 39.54 48.52 39.49 48.6 39.44 48.69 39.38 48.79 39.32 48.89 39.26 48.98 39.19 49.06 39.13 49.14 39.07 49.21 39.02 49.3 38.95 49.39 38.88 49.47 38.81 49.55 38.75 49.61 38.69 49.68 38.62 49.76 38.55 49.84 38.48 49.91 38.41 49.97 38.34 50.03 38.27 50.09 38.2 50.15 38.13 50.22 38.06 50.27 37.98 50.33 37.91 50.37 37.84 50.42 37.76 50.47 37.69 50.53 37.61 50.57 37.53 50.61 37.46 50.65 37.38 50.68 37.31 50.72 37.22 50.76 37.14 50.79 37.06 50.82 36.99 50.84 36.91 50.87 36.83 50.89 36.75 50.92 36.66 50.93 36.58 50.95 36.5 50.96 36.42 50.97 36.34 50.98 36.28 50.98 36.23 50.98 36.17 50.94 36.21 50.89 36.25 50.85 36.28ZM 50.85 40.28C 50.7 40.41 50.54 40.54 50.38 40.66 50.29 40.73 50.2 40.79 50.11 40.86 49.93 40.98 49.75 41.1 49.56 41.21 49.47 41.27 49.39 41.32 49.3 41.37 49.01 41.53 48.72 41.68 48.41 41.82 48.4 41.83 48.38 41.83 48.37 41.83 48.07 41.97 47.76 42.09 47.44 42.2 47.33 42.24 47.22 42.27 47.11 42.3 46.88 42.38 46.64 42.45 46.4 42.51 46.27 42.55 46.14 42.58 46 42.61 45.77 42.66 45.53 42.71 45.29 42.75 45.15 42.78 45.02 42.8 44.87 42.82 44.61 42.86 44.35 42.89 44.08 42.92 43.96 42.93 43.83 42.94 43.71 42.95 43.31 42.98 42.91 43 42.5 43 42.12 43 41.74 42.98 41.36 42.95 41.25 42.95 41.14 42.93 41.03 42.92 40.75 42.9 40.48 42.86 40.21 42.82 40.14 42.81 40.07 42.81 40 42.8 40 42.8 40 44 40 44 40 44 40 44.74 40 44.74 40.19 44.78 40.38 44.82 40.57 44.85 40.71 44.87 40.86 44.89 41.01 44.91 41.5 44.96 42 45 42.5 45 42.78 45 43.07 44.99 43.34 44.97 43.44 44.97 43.53 44.96 43.62 44.95 43.8 44.93 43.99 44.92 44.17 44.9 44.28 44.88 44.38 44.87 44.49 44.85 44.65 44.83 44.81 44.8 44.97 44.77 45.08 44.75 45.19 44.73 45.3 44.7 45.45 44.67 45.6 44.64 45.74 44.61 45.85 44.58 45.96 44.55 46.06 44.52 46.2 44.48 46.34 44.44 46.47 44.4 46.58 44.36 46.68 44.32 46.79 44.29 46.92 44.24 47.05 44.2 47.17 44.15 47.27 44.11 47.37 44.06 47.47 44.02 47.59 43.97 47.71 43.92 47.82 43.86 47.92 43.82 48.01 43.77 48.11 43.72 48.22 43.66 48.32 43.6 48.43 43.54 48.52 43.49 48.6 43.44 48.69 43.38 48.79 43.32 48.89 43.26 48.98 43.19 49.06 43.13 49.14 43.07 49.21 43.02 49.3 42.95 49.39 42.88 49.47 42.81 49.55 42.75 49.61 42.69 49.68 42.62 49.76 42.55 49.84 42.48 49.91 42.41 49.97 42.34 50.03 42.27 50.09 42.2 50.15 42.13 50.22 42.06 50.27 41.98 50.33 41.91 50.37 41.84 50.42 41.76 50.47 41.69 50.53 41.61 50.57 41.53 50.61 41.46 50.65 41.38 50.68 41.31 50.72 41.22 50.76 41.14 50.79 41.06 50.82 40.99 50.84 40.91 50.87 40.83 50.89 40.75 50.92 40.66 50.93 40.58 50.95 40.5 50.96 40.42 50.97 40.34 50.98 40.28 50.98 40.23 50.98 40.17 50.94 40.21 50.89 40.25 50.85 40.28ZM 50.85 44.28C 50.7 44.41 50.54 44.54 50.38 44.66 50.29 44.73 50.2 44.79 50.11 44.86 49.93 44.98 49.75 45.1 49.56 45.21 49.47 45.27 49.39 45.32 49.3 45.37 49.01 45.53 48.72 45.68 48.41 45.82 48.4 45.83 48.38 45.83 48.37 45.83 48.07 45.97 47.76 46.09 47.44 46.2 47.33 46.24 47.22 46.27 47.11 46.3 46.88 46.38 46.64 46.45 46.4 46.51 46.27 46.55 46.14 46.58 46 46.61 45.77 46.66 45.53 46.71 45.29 46.75 45.15 46.78 45.02 46.8 44.87 46.82 44.61 46.86 44.35 46.89 44.08 46.92 43.96 46.93 43.83 46.94 43.71 46.95 43.31 46.98 42.91 47 42.5 47 42.12 47 41.74 46.98 41.36 46.95 41.25 46.95 41.14 46.93 41.03 46.92 40.75 46.9 40.48 46.86 40.21 46.82 40.14 46.81 40.07 46.81 40 46.8 40 46.8 40 48 40 48 40 48 40 48.74 40 48.74 40.19 48.78 40.38 48.82 40.57 48.85 40.71 48.87 40.86 48.89 41.01 48.91 41.5 48.96 42 49 42.5 49 42.78 49 43.07 48.99 43.34 48.97 43.44 48.97 43.53 48.96 43.62 48.95 43.8 48.93 43.99 48.92 44.17 48.9 44.28 48.88 44.38 48.87 44.49 48.85 44.65 48.83 44.81 48.8 44.97 48.77 45.08 48.75 45.19 48.73 45.3 48.7 45.45 48.67 45.6 48.64 45.74 48.61 45.85 48.58 45.96 48.55 46.06 48.52 46.2 48.48 46.34 48.44 46.47 48.4 46.58 48.36 46.68 48.32 46.79 48.29 46.92 48.24 47.05 48.2 47.17 48.15 47.27 48.11 47.37 48.06 47.47 48.02 47.59 47.97 47.71 47.92 47.82 47.86 47.92 47.82 48.01 47.77 48.11 47.72 48.22 47.66 48.32 47.6 48.43 47.54 48.52 47.49 48.6 47.44 48.69 47.38 48.79 47.32 48.89 47.26 48.98 47.19 49.06 47.13 49.14 47.07 49.21 47.02 49.3 46.95 49.39 46.88 49.47 46.81 49.55 46.75 49.61 46.69 49.68 46.62 49.76 46.55 49.84 46.48 49.91 46.41 49.97 46.34 50.03 46.27 50.09 46.2 50.15 46.13 50.22 46.06 50.27 45.98 50.33 45.91 50.37 45.84 50.42 45.76 50.47 45.69 50.53 45.61 50.57 45.53 50.61 45.46 50.65 45.38 50.68 45.31 50.72 45.22 50.76 45.14 50.79 45.06 50.82 44.99 50.84 44.91 50.87 44.83 50.89 44.75 50.92 44.66 50.93 44.58 50.95 44.5 50.96 44.42 50.97 44.34 50.98 44.28 50.98 44.23 50.98 44.17 50.94 44.21 50.89 44.25 50.85 44.28ZM 50.85 48.29C 50.7 48.41 50.54 48.54 50.38 48.66 50.29 48.73 50.2 48.8 50.11 48.86 49.93 48.98 49.75 49.1 49.56 49.21 49.47 49.27 49.39 49.32 49.3 49.37 49.01 49.53 48.72 49.68 48.41 49.82 48.4 49.83 48.38 49.83 48.37 49.83 48.07 49.97 47.76 50.09 47.44 50.2 47.33 50.24 47.22 50.27 47.11 50.3 46.88 50.38 46.64 50.45 46.4 50.51 46.27 50.55 46.14 50.58 46 50.61 45.77 50.66 45.53 50.71 45.29 50.75 45.15 50.78 45.02 50.8 44.87 50.82 44.61 50.86 44.35 50.89 44.08 50.92 43.96 50.93 43.83 50.94 43.71 50.95 43.31 50.98 42.91 51 42.5 51 42.12 51 41.74 50.98 41.36 50.95 41.25 50.95 41.14 50.93 41.03 50.92 40.75 50.9 40.48 50.86 40.21 50.82 40.14 50.81 40.07 50.81 40 50.8 40 50.8 40 52 40 52 40 52.26 39.98 52.51 39.94 52.76 39.99 52.77 40.03 52.77 40.08 52.78 40.39 52.84 40.71 52.88 41.03 52.92 41.13 52.93 41.24 52.94 41.34 52.95 41.72 52.98 42.11 53 42.5 53 42.78 53 43.07 52.99 43.34 52.97 43.44 52.97 43.53 52.96 43.62 52.95 43.8 52.93 43.99 52.92 44.17 52.9 44.28 52.88 44.38 52.86 44.49 52.85 44.65 52.82 44.81 52.8 44.97 52.77 45.08 52.75 45.19 52.73 45.3 52.7 45.45 52.67 45.6 52.64 45.74 52.61 45.85 52.58 45.96 52.55 46.06 52.51 46.2 52.48 46.34 52.44 46.47 52.4 46.58 52.36 46.68 52.32 46.79 52.29 46.92 52.24 47.05 52.2 47.17 52.15 47.27 52.11 47.37 52.06 47.47 52.02 47.59 51.97 47.71 51.92 47.82 51.86 47.92 51.82 48.01 51.76 48.11 51.71 48.22 51.66 48.32 51.6 48.43 51.54 48.52 51.49 48.6 51.43 48.69 51.38 48.79 51.32 48.89 51.26 48.98 51.19 49.06 51.13 49.14 51.07 49.21 51.01 49.3 50.95 49.39 50.88 49.47 50.81 49.55 50.75 49.61 50.69 49.68 50.62 49.76 50.55 49.84 50.48 49.91 50.41 49.97 50.34 50.03 50.27 50.09 50.2 50.15 50.13 50.22 50.05 50.27 49.98 50.33 49.91 50.37 49.83 50.42 49.76 50.47 49.69 50.53 49.61 50.57 49.53 50.61 49.45 50.65 49.38 50.68 49.3 50.72 49.22 50.76 49.14 50.79 49.06 50.82 48.98 50.84 48.91 50.87 48.83 50.89 48.74 50.92 48.66 50.93 48.58 50.95 48.5 50.96 48.42 50.97 48.34 50.98 48.28 50.98 48.23 50.98 48.17 50.94 48.21 50.89 48.25 50.85 48.29ZM 21.05 52.48C 21.06 52.53 21.06 52.57 21.07 52.62 21.11 52.8 21.17 52.98 21.24 53.15 21.26 53.2 21.29 53.24 21.31 53.29 21.37 53.42 21.43 53.54 21.51 53.66 21.55 53.73 21.6 53.8 21.65 53.87 21.72 53.97 21.79 54.06 21.87 54.15 21.93 54.23 22 54.3 22.07 54.38 22.14 54.46 22.22 54.53 22.3 54.61 22.39 54.69 22.47 54.77 22.56 54.84 22.63 54.9 22.7 54.95 22.77 55 22.97 55.16 23.19 55.31 23.43 55.45 23.51 55.5 23.59 55.55 23.68 55.6 23.81 55.68 23.94 55.74 24.08 55.81 24.18 55.86 24.27 55.91 24.37 55.95 25.81 56.6 27.59 57 29.5 57 31.75 57 33.84 56.45 35.38 55.57 35.38 55.57 35.4 55.56 35.4 55.56 35.45 55.53 35.49 55.5 35.54 55.47 35.79 55.32 36.02 55.17 36.23 55.01 36.25 54.99 36.27 54.98 36.29 54.96 36.99 54.41 37.49 53.78 37.76 53.12 37.76 53.12 37.77 53.11 37.77 53.11 37.84 52.93 37.9 52.74 37.94 52.56 37.94 52.54 37.94 52.51 37.95 52.49 37.97 52.38 37.97 52.28 37.98 52.18 37.94 52.21 37.89 52.25 37.85 52.29 37.7 52.41 37.54 52.54 37.38 52.66 37.29 52.73 37.2 52.8 37.11 52.86 36.93 52.98 36.75 53.1 36.56 53.21 36.47 53.27 36.39 53.32 36.3 53.37 36.01 53.53 35.72 53.68 35.41 53.82 35.4 53.83 35.38 53.83 35.37 53.83 35.07 53.97 34.76 54.09 34.44 54.2 34.33 54.24 34.22 54.27 34.11 54.3 33.88 54.38 33.64 54.45 33.4 54.51 33.27 54.55 33.14 54.58 33 54.61 32.77 54.66 32.53 54.71 32.29 54.75 32.15 54.78 32.02 54.8 31.87 54.82 31.61 54.86 31.35 54.89 31.08 54.92 30.96 54.93 30.83 54.94 30.71 54.95 30.31 54.98 29.91 55 29.5 55 29.09 55 28.69 54.98 28.29 54.95 28.17 54.94 28.04 54.93 27.92 54.91 27.65 54.89 27.39 54.86 27.13 54.82 26.99 54.8 26.85 54.78 26.71 54.75 26.47 54.71 26.23 54.66 26 54.61 25.86 54.57 25.73 54.54 25.6 54.51 25.36 54.45 25.12 54.38 24.89 54.3 24.78 54.27 24.67 54.24 24.56 54.2 24.24 54.09 23.93 53.97 23.63 53.83 23.61 53.83 23.6 53.82 23.59 53.82 23.28 53.68 22.99 53.53 22.71 53.37 22.61 53.32 22.53 53.27 22.44 53.21 22.25 53.1 22.07 52.98 21.89 52.86 21.8 52.79 21.71 52.73 21.62 52.66 21.46 52.54 21.3 52.41 21.15 52.28 21.11 52.25 21.06 52.21 21.02 52.17 21.03 52.28 21.03 52.38 21.05 52.48ZM 21.03 48.34C 21.04 48.42 21.05 48.5 21.06 48.58 21.08 48.66 21.11 48.75 21.13 48.83 21.15 48.91 21.18 48.98 21.2 49.06 21.24 49.14 21.28 49.22 21.31 49.3 21.35 49.38 21.38 49.46 21.43 49.53 21.47 49.61 21.52 49.69 21.58 49.76 21.62 49.84 21.67 49.91 21.72 49.98 21.78 50.06 21.85 50.13 21.91 50.2 21.97 50.27 22.03 50.34 22.09 50.41 22.16 50.48 22.24 50.55 22.32 50.62 22.38 50.69 22.45 50.75 22.52 50.81 22.6 50.88 22.69 50.95 22.78 51.01 22.86 51.07 22.94 51.13 23.02 51.19 23.11 51.26 23.21 51.32 23.31 51.38 23.4 51.43 23.48 51.49 23.57 51.54 23.67 51.6 23.78 51.66 23.89 51.71 23.98 51.76 24.08 51.82 24.17 51.86 24.29 51.92 24.41 51.97 24.52 52.02 24.63 52.06 24.72 52.11 24.83 52.15 24.95 52.2 25.08 52.24 25.21 52.29 25.31 52.32 25.42 52.36 25.52 52.4 25.66 52.44 25.8 52.48 25.93 52.52 26.04 52.55 26.15 52.58 26.26 52.61 26.4 52.64 26.55 52.67 26.7 52.7 26.81 52.73 26.92 52.75 27.03 52.77 27.19 52.8 27.35 52.83 27.51 52.85 27.62 52.87 27.72 52.88 27.83 52.9 28.01 52.92 28.19 52.93 28.38 52.95 28.47 52.96 28.56 52.97 28.65 52.97 28.93 52.99 29.21 53 29.5 53 29.78 53 30.07 52.99 30.34 52.97 30.44 52.97 30.53 52.96 30.62 52.95 30.8 52.93 30.99 52.92 31.17 52.9 31.28 52.88 31.38 52.86 31.49 52.85 31.65 52.82 31.81 52.8 31.97 52.77 32.08 52.75 32.19 52.73 32.3 52.7 32.45 52.67 32.6 52.64 32.74 52.61 32.85 52.58 32.96 52.55 33.06 52.51 33.2 52.48 33.34 52.44 33.47 52.4 33.58 52.36 33.68 52.32 33.79 52.29 33.92 52.24 34.05 52.2 34.17 52.15 34.27 52.11 34.37 52.06 34.47 52.02 34.59 51.97 34.71 51.92 34.82 51.86 34.92 51.82 35.01 51.76 35.11 51.71 35.22 51.66 35.32 51.6 35.43 51.54 35.52 51.49 35.6 51.43 35.69 51.38 35.79 51.32 35.89 51.26 35.98 51.19 36.06 51.13 36.14 51.07 36.21 51.01 36.3 50.95 36.39 50.88 36.47 50.81 36.55 50.75 36.61 50.69 36.68 50.62 36.76 50.55 36.84 50.48 36.91 50.41 36.97 50.34 37.03 50.27 37.09 50.2 37.15 50.13 37.22 50.05 37.27 49.98 37.33 49.91 37.37 49.83 37.42 49.76 37.47 49.69 37.53 49.61 37.57 49.53 37.61 49.45 37.65 49.38 37.68 49.3 37.72 49.22 37.76 49.14 37.79 49.06 37.82 48.98 37.84 48.91 37.87 48.83 37.89 48.74 37.92 48.66 37.93 48.58 37.95 48.5 37.96 48.42 37.97 48.34 37.98 48.28 37.98 48.23 37.98 48.17 37.94 48.21 37.89 48.25 37.85 48.29 37.7 48.41 37.54 48.54 37.38 48.66 37.29 48.73 37.2 48.8 37.11 48.86 36.93 48.98 36.75 49.1 36.56 49.21 36.47 49.27 36.39 49.32 36.3 49.37 36.01 49.53 35.72 49.68 35.41 49.82 35.4 49.83 35.38 49.83 35.37 49.83 35.07 49.97 34.76 50.09 34.44 50.2 34.33 50.24 34.22 50.27 34.11 50.3 33.88 50.38 33.64 50.45 33.4 50.51 33.27 50.55 33.14 50.58 33 50.61 32.77 50.66 32.53 50.71 32.29 50.75 32.15 50.78 32.02 50.8 31.87 50.82 31.61 50.86 31.35 50.89 31.08 50.92 30.96 50.93 30.83 50.94 30.71 50.95 30.31 50.98 29.91 51 29.5 51 29.09 51 28.69 50.98 28.29 50.95 28.16 50.94 28.04 50.93 27.91 50.91 27.65 50.89 27.38 50.86 27.12 50.82 26.98 50.8 26.84 50.78 26.71 50.75 26.46 50.71 26.23 50.66 26 50.61 25.86 50.58 25.73 50.54 25.59 50.51 25.35 50.45 25.12 50.38 24.89 50.3 24.78 50.27 24.66 50.24 24.56 50.2 24.23 50.09 23.92 49.97 23.62 49.83 23.61 49.83 23.6 49.83 23.59 49.82 23.28 49.68 22.99 49.53 22.7 49.37 22.61 49.32 22.53 49.27 22.44 49.21 22.25 49.1 22.06 48.98 21.89 48.86 21.79 48.79 21.7 48.73 21.61 48.66 21.45 48.54 21.3 48.41 21.15 48.28 21.11 48.25 21.06 48.21 21.01 48.17 21.02 48.23 21.02 48.28 21.03 48.34ZM 21.03 44.34C 21.04 44.42 21.05 44.5 21.06 44.58 21.08 44.66 21.11 44.75 21.13 44.83 21.15 44.91 21.18 44.98 21.2 45.06 21.24 45.14 21.28 45.22 21.31 45.3 21.35 45.38 21.38 45.46 21.43 45.53 21.47 45.61 21.52 45.69 21.58 45.76 21.62 45.84 21.67 45.91 21.72 45.98 21.78 46.05 21.85 46.13 21.91 46.2 21.97 46.27 22.03 46.34 22.09 46.41 22.16 46.48 22.24 46.55 22.32 46.62 22.38 46.69 22.45 46.75 22.52 46.81 22.6 46.88 22.69 46.95 22.78 47.01 22.86 47.07 22.94 47.13 23.02 47.19 23.11 47.26 23.21 47.32 23.31 47.38 23.4 47.43 23.48 47.49 23.57 47.54 23.67 47.6 23.78 47.66 23.89 47.71 23.98 47.76 24.08 47.82 24.17 47.86 24.29 47.92 24.41 47.97 24.52 48.02 24.63 48.06 24.72 48.11 24.83 48.15 24.95 48.2 25.08 48.24 25.21 48.29 25.31 48.32 25.42 48.36 25.52 48.4 25.66 48.44 25.8 48.48 25.93 48.52 26.04 48.55 26.15 48.58 26.26 48.61 26.4 48.64 26.55 48.67 26.7 48.7 26.81 48.73 26.92 48.75 27.03 48.77 27.19 48.8 27.35 48.83 27.51 48.85 27.62 48.87 27.72 48.88 27.83 48.9 28.01 48.92 28.19 48.93 28.38 48.95 28.47 48.96 28.56 48.97 28.65 48.97 28.93 48.99 29.21 49 29.5 49 29.78 49 30.07 48.99 30.34 48.97 30.44 48.97 30.53 48.96 30.62 48.95 30.8 48.93 30.99 48.92 31.17 48.9 31.28 48.88 31.38 48.86 31.49 48.85 31.65 48.82 31.81 48.8 31.97 48.77 32.08 48.75 32.19 48.73 32.3 48.7 32.45 48.67 32.6 48.64 32.74 48.61 32.85 48.58 32.96 48.55 33.06 48.51 33.2 48.48 33.34 48.44 33.47 48.4 33.58 48.36 33.68 48.32 33.79 48.29 33.92 48.24 34.05 48.2 34.17 48.15 34.27 48.11 34.37 48.06 34.47 48.02 34.59 47.97 34.71 47.92 34.82 47.86 34.92 47.82 35.01 47.76 35.11 47.71 35.22 47.66 35.32 47.6 35.43 47.54 35.52 47.49 35.6 47.43 35.69 47.38 35.79 47.32 35.89 47.26 35.98 47.19 36.06 47.13 36.14 47.07 36.21 47.01 36.3 46.95 36.39 46.88 36.47 46.81 36.55 46.75 36.61 46.69 36.68 46.62 36.76 46.55 36.84 46.48 36.91 46.41 36.97 46.34 37.03 46.27 37.09 46.2 37.15 46.13 37.22 46.05 37.27 45.98 37.33 45.91 37.37 45.83 37.42 45.76 37.47 45.69 37.53 45.61 37.57 45.53 37.61 45.45 37.65 45.38 37.68 45.3 37.72 45.22 37.76 45.14 37.79 45.06 37.82 44.98 37.84 44.91 37.87 44.83 37.89 44.74 37.92 44.66 37.93 44.58 37.95 44.5 37.96 44.42 37.97 44.34 37.98 44.28 37.98 44.23 37.98 44.17 37.94 44.21 37.89 44.25 37.85 44.29 37.7 44.41 37.54 44.54 37.38 44.66 37.29 44.73 37.2 44.8 37.11 44.86 36.93 44.98 36.75 45.1 36.56 45.21 36.47 45.27 36.39 45.32 36.3 45.37 36.01 45.53 35.72 45.68 35.41 45.82 35.4 45.83 35.38 45.83 35.37 45.83 35.07 45.97 34.76 46.09 34.44 46.2 34.33 46.24 34.22 46.27 34.11 46.3 33.88 46.38 33.64 46.45 33.4 46.51 33.27 46.55 33.14 46.58 33 46.61 32.77 46.66 32.53 46.71 32.29 46.75 32.15 46.78 32.02 46.8 31.87 46.82 31.61 46.86 31.35 46.89 31.08 46.92 30.96 46.93 30.83 46.94 30.71 46.95 30.31 46.98 29.91 47 29.5 47 29.09 47 28.69 46.98 28.29 46.95 28.16 46.94 28.04 46.93 27.91 46.91 27.65 46.89 27.38 46.86 27.12 46.82 26.98 46.8 26.84 46.77 26.71 46.75 26.46 46.71 26.23 46.66 26 46.61 25.86 46.57 25.73 46.54 25.59 46.51 25.35 46.45 25.12 46.38 24.89 46.3 24.78 46.27 24.66 46.24 24.56 46.2 24.23 46.09 23.92 45.97 23.62 45.83 23.61 45.83 23.6 45.82 23.59 45.82 23.28 45.68 22.99 45.53 22.7 45.37 22.61 45.32 22.53 45.27 22.44 45.21 22.25 45.1 22.06 44.98 21.89 44.86 21.79 44.79 21.7 44.73 21.61 44.66 21.45 44.54 21.3 44.41 21.15 44.28 21.11 44.25 21.06 44.21 21.01 44.17 21.02 44.23 21.02 44.28 21.03 44.34ZM 21.03 40.34C 21.04 40.42 21.05 40.5 21.06 40.58 21.08 40.66 21.11 40.75 21.13 40.83 21.15 40.91 21.18 40.98 21.2 41.06 21.24 41.14 21.28 41.22 21.31 41.3 21.35 41.38 21.38 41.46 21.43 41.53 21.47 41.61 21.52 41.69 21.58 41.76 21.62 41.84 21.67 41.91 21.72 41.98 21.78 42.05 21.85 42.13 21.91 42.2 21.97 42.27 22.03 42.34 22.09 42.41 22.16 42.48 22.24 42.55 22.32 42.62 22.38 42.69 22.45 42.75 22.52 42.81 22.6 42.88 22.69 42.95 22.78 43.01 22.86 43.07 22.94 43.13 23.02 43.19 23.11 43.26 23.21 43.32 23.31 43.38 23.4 43.43 23.48 43.49 23.57 43.54 23.67 43.6 23.78 43.66 23.89 43.71 23.98 43.76 24.08 43.82 24.17 43.86 24.29 43.92 24.41 43.97 24.52 44.02 24.63 44.06 24.72 44.11 24.83 44.15 24.95 44.2 25.08 44.24 25.21 44.29 25.31 44.32 25.42 44.36 25.52 44.4 25.66 44.44 25.8 44.48 25.93 44.52 26.04 44.55 26.15 44.58 26.26 44.61 26.4 44.64 26.55 44.67 26.7 44.7 26.81 44.73 26.92 44.75 27.03 44.77 27.19 44.8 27.35 44.83 27.51 44.85 27.62 44.87 27.72 44.88 27.83 44.9 28.01 44.92 28.19 44.93 28.38 44.95 28.47 44.96 28.56 44.97 28.65 44.97 28.93 44.99 29.21 45 29.5 45 29.78 45 30.07 44.99 30.34 44.97 30.44 44.97 30.53 44.96 30.62 44.95 30.8 44.93 30.99 44.92 31.17 44.9 31.28 44.89 31.38 44.87 31.49 44.85 31.65 44.83 31.81 44.8 31.97 44.78 32.08 44.76 32.19 44.73 32.3 44.7 32.45 44.67 32.6 44.64 32.74 44.61 32.85 44.58 32.96 44.55 33.06 44.52 33.2 44.48 33.34 44.44 33.47 44.4 33.58 44.36 33.68 44.33 33.79 44.29 33.92 44.24 34.05 44.2 34.17 44.15 34.27 44.11 34.37 44.06 34.47 44.02 34.59 43.97 34.71 43.92 34.82 43.86 34.92 43.82 35.01 43.77 35.11 43.72 35.22 43.66 35.32 43.6 35.43 43.54 35.52 43.49 35.6 43.44 35.69 43.38 35.79 43.32 35.89 43.26 35.98 43.19 36.06 43.14 36.14 43.08 36.21 43.02 36.3 42.95 36.39 42.88 36.47 42.81 36.55 42.75 36.61 42.69 36.68 42.62 36.76 42.55 36.84 42.48 36.91 42.41 36.97 42.34 37.03 42.27 37.09 42.2 37.15 42.13 37.22 42.06 37.27 41.98 37.33 41.91 37.37 41.84 37.42 41.76 37.47 41.69 37.53 41.61 37.57 41.53 37.61 41.46 37.65 41.38 37.68 41.31 37.72 41.23 37.76 41.14 37.79 41.06 37.82 40.99 37.84 40.91 37.87 40.83 37.89 40.75 37.92 40.66 37.93 40.58 37.95 40.5 37.96 40.42 37.97 40.34 37.98 40.28 37.98 40.23 37.98 40.17 37.94 40.21 37.89 40.25 37.85 40.29 37.7 40.41 37.54 40.54 37.38 40.66 37.29 40.73 37.2 40.8 37.11 40.86 36.93 40.98 36.75 41.1 36.56 41.21 36.47 41.27 36.39 41.32 36.3 41.37 36.01 41.53 35.72 41.68 35.41 41.82 35.4 41.83 35.38 41.83 35.37 41.83 35.07 41.97 34.76 42.09 34.44 42.2 34.33 42.24 34.22 42.27 34.11 42.3 33.88 42.38 33.64 42.45 33.4 42.51 33.27 42.55 33.14 42.58 33 42.61 32.77 42.66 32.53 42.71 32.29 42.75 32.15 42.78 32.02 42.8 31.87 42.82 31.61 42.86 31.35 42.89 31.08 42.92 30.96 42.93 30.83 42.94 30.71 42.95 30.31 42.98 29.91 43 29.5 43 29.09 43 28.69 42.98 28.29 42.95 28.17 42.94 28.04 42.93 27.92 42.91 27.65 42.89 27.39 42.86 27.13 42.82 26.98 42.8 26.85 42.77 26.71 42.75 26.47 42.71 26.23 42.66 26 42.61 25.86 42.57 25.73 42.54 25.6 42.51 25.36 42.45 25.12 42.38 24.89 42.3 24.78 42.27 24.67 42.24 24.56 42.2 24.24 42.09 23.92 41.97 23.62 41.83 23.61 41.83 23.6 41.82 23.59 41.82 23.28 41.68 22.99 41.53 22.7 41.37 22.61 41.32 22.53 41.27 22.44 41.21 22.25 41.1 22.07 40.98 21.89 40.86 21.8 40.79 21.71 40.73 21.62 40.66 21.46 40.54 21.3 40.41 21.15 40.28 21.11 40.25 21.06 40.21 21.01 40.17 21.02 40.23 21.02 40.28 21.03 40.34ZM 24.69 29.76C 24.71 29.75 24.72 29.75 24.74 29.74 24.9 29.69 25.06 29.64 25.22 29.59 25.37 29.55 25.51 29.51 25.66 29.47 25.83 29.43 26 29.39 26.17 29.35 26.32 29.32 26.48 29.29 26.63 29.26 26.81 29.23 26.98 29.2 27.16 29.17 27.32 29.15 27.48 29.13 27.64 29.11 27.82 29.09 28.01 29.07 28.19 29.06 28.36 29.04 28.52 29.03 28.69 29.03 28.8 29.02 28.9 29.01 29 29.01 29 29 29 29 29 29 29 26.64 28.31 24.45 27.13 22.59 26.6 21.76 25.99 21.02 25.3 20.35 25.21 20.27 25.12 20.19 25.03 20.1 24.78 19.89 24.53 19.68 24.28 19.48 24.15 19.38 24.02 19.28 23.89 19.19 23.62 19 23.35 18.83 23.07 18.67 22.96 18.6 22.85 18.53 22.73 18.46 22.36 18.25 21.97 18.07 21.57 17.91 21.42 17.85 21.27 17.8 21.12 17.74 20.83 17.64 20.55 17.54 20.26 17.46 20.09 17.41 19.93 17.37 19.76 17.33 19.46 17.26 19.15 17.2 18.84 17.16 18.69 17.13 18.55 17.11 18.4 17.09 17.94 17.03 17.47 17 17 17 16.53 17 16.06 17.03 15.6 17.09 15.45 17.11 15.31 17.13 15.16 17.16 14.85 17.2 14.54 17.26 14.24 17.33 14.07 17.37 13.91 17.42 13.74 17.46 13.45 17.54 13.17 17.64 12.88 17.74 12.73 17.8 12.58 17.85 12.43 17.91 12.03 18.07 11.64 18.26 11.27 18.46 11.15 18.52 11.04 18.6 10.93 18.67 10.65 18.83 10.38 19 10.11 19.19 9.98 19.28 9.85 19.38 9.72 19.48 9.47 19.68 9.21 19.89 8.97 20.1 8.88 20.19 8.79 20.27 8.7 20.35 8.5 20.55 8.31 20.76 8.12 20.98 8.12 20.98 11.24 24.4 11.24 24.4 11.59 24.79 12 24.98 12.43 25 12.55 25 12.66 24.98 12.76 24.96 12.83 24.89 12.9 24.8 12.98 24.7 13.49 24.11 14.43 23 16 23 17.17 23 18.3 23.34 19.27 23.97 20.44 23.16 22.42 22.79 23.28 23.04 23.28 23.04 23.69 23.16 23.69 23.16 23.69 23.16 23.89 23.54 23.89 23.54 23.96 23.69 25.37 26.49 24.69 29.76ZM 27 19.21C 27 19.21 27 12.98 27 12.98 23.81 12.74 21.26 10.19 21.02 7 21.02 7 12.98 7 12.98 7 12.74 10.19 10.19 12.74 7 12.98 7 12.98 7 19.21 7 19.21 7.01 19.2 7.03 19.18 7.05 19.17 7.21 19 7.39 18.84 7.57 18.68 7.74 18.52 7.91 18.36 8.08 18.21 8.15 18.16 8.22 18.11 8.29 18.06 10.34 16.42 12.81 15.37 15.47 15.09 15.51 15.08 15.54 15.07 15.57 15.07 16.04 15.02 16.52 15 17 15 17.48 15 17.96 15.02 18.43 15.07 18.46 15.08 18.49 15.08 18.52 15.09 21.18 15.38 23.66 16.42 25.71 18.06 25.78 18.11 25.85 18.16 25.91 18.21 26.09 18.36 26.26 18.52 26.43 18.68 26.6 18.84 26.78 19 26.95 19.17 26.97 19.18 26.98 19.2 27 19.21ZM 22.32 24.96C 21.63 25.03 20.5 25.43 20.26 25.73 20.26 25.73 19.76 27.15 19.76 27.15 19.76 27.15 18.69 26.04 18.69 26.04 17.95 25.37 16.99 25 16 25 15.4 25 15 25.41 14.51 25.99 14.21 26.34 13.93 26.67 13.52 26.81 13.18 26.93 12.83 26.99 12.46 27 11.48 26.99 10.5 26.56 9.76 25.75 9.76 25.75 6.88 22.58 6.88 22.58 6.88 22.58 6.87 22.59 6.87 22.59 6.78 22.73 6.69 22.87 6.61 23.02 6.53 23.15 6.46 23.28 6.38 23.42 6.25 23.68 6.12 23.95 6 24.22 5.96 24.31 5.92 24.41 5.88 24.5 5.78 24.76 5.68 25.02 5.59 25.29 5.57 25.36 5.54 25.43 5.52 25.5 5.42 25.85 5.33 26.2 5.25 26.55 5.24 26.6 5.24 26.64 5.23 26.69 5.17 27 5.12 27.31 5.08 27.63 5.07 27.72 5.06 27.81 5.06 27.9 5.02 28.26 5 28.63 5 29 5 29.37 5.02 29.74 5.06 30.1 5.06 30.19 5.07 30.28 5.08 30.37 5.12 30.69 5.17 31 5.23 31.31 5.24 31.35 5.24 31.4 5.25 31.45 5.33 31.8 5.42 32.15 5.52 32.49 5.54 32.57 5.57 32.64 5.59 32.71 5.68 32.98 5.78 33.23 5.88 33.49 5.92 33.59 5.96 33.69 6 33.78 6.11 34.05 6.24 34.3 6.37 34.56 6.45 34.71 6.54 34.86 6.63 35.01 6.71 35.14 6.79 35.28 6.87 35.41 6.87 35.41 6.88 35.41 6.88 35.42 6.88 35.42 9.73 32.28 9.73 32.28 10.62 31.31 11.85 30.85 13.03 31.05 13.21 31.08 13.38 31.13 13.55 31.19 13.88 31.3 14.18 31.56 14.88 32.2 15.14 32.44 15.55 32.82 15.76 32.98 15.76 32.98 16.16 33.03 16.16 33.03 16.16 33.03 16.39 33.57 16.39 33.57 16.71 34.31 17.08 34.42 17.2 34.45 17.72 34.61 18.59 34.32 19.59 33.67 19.59 33.66 19.59 33.66 19.6 33.65 19.66 33.53 19.72 33.4 19.79 33.29 19.85 33.19 19.92 33.1 19.98 33.01 20.06 32.9 20.13 32.79 20.22 32.68 20.29 32.59 20.37 32.5 20.45 32.42 20.54 32.31 20.63 32.21 20.73 32.11 20.81 32.02 20.9 31.94 20.99 31.86 21.1 31.76 21.2 31.67 21.31 31.57 21.41 31.49 21.51 31.42 21.61 31.34 21.73 31.25 21.84 31.17 21.97 31.08 22.03 31.04 22.1 30.99 22.17 30.95 23.39 28.52 22.71 26 22.32 24.96ZM 18.76 42.87C 18.5 42.91 18.24 42.92 17.98 42.94 17.7 42.96 17.42 42.99 17.15 42.99 17.1 42.99 17.05 43 17 43 16.69 43 16.39 42.97 16.09 42.95 15.92 42.94 15.75 42.94 15.59 42.93 15.09 42.88 14.61 42.8 14.13 42.7 13.94 42.66 13.75 42.6 13.56 42.55 13.26 42.48 12.96 42.4 12.66 42.3 12.45 42.23 12.25 42.15 12.04 42.08 11.78 41.98 11.52 41.87 11.26 41.75 11.05 41.66 10.85 41.56 10.65 41.46 10.4 41.33 10.15 41.19 9.91 41.05 9.72 40.94 9.53 40.83 9.34 40.71 9.08 40.53 8.82 40.34 8.56 40.15 8.42 40.04 8.28 39.94 8.14 39.83 7.76 39.52 7.39 39.18 7.04 38.82 7.03 38.81 7.01 38.8 7 38.79 7 38.79 7 45.02 7 45.02 10.19 45.26 12.74 47.81 12.98 51 12.98 51 19 51 19 51 19 51 19 48 19 48 19 48 19 44 19 44 19 44 19 42.85 19 42.85 18.92 42.86 18.84 42.86 18.76 42.87ZM 19 40.81C 19 40.81 19 40 19 40 19 40 19 36.21 19 36.21 18.13 36.52 17.34 36.58 16.64 36.38 16.06 36.21 15.28 35.78 14.71 34.69 14.42 34.5 14.07 34.18 13.52 33.67 13.3 33.47 12.97 33.17 12.82 33.05 12.78 33.04 12.73 33.03 12.69 33.02 12.2 32.94 11.63 33.17 11.21 33.63 11.21 33.63 8.12 37.02 8.12 37.02 8.31 37.23 8.49 37.45 8.7 37.64 8.79 37.73 8.88 37.81 8.97 37.89 9.21 38.11 9.46 38.32 9.72 38.52 9.85 38.62 9.98 38.72 10.11 38.81 10.38 39 10.65 39.17 10.93 39.33 11.04 39.4 11.15 39.47 11.27 39.54 11.64 39.74 12.03 39.93 12.43 40.09 12.58 40.15 12.73 40.2 12.88 40.26 13.17 40.36 13.45 40.46 13.74 40.54 13.9 40.58 14.07 40.63 14.24 40.67 14.54 40.74 14.85 40.8 15.16 40.84 15.31 40.87 15.45 40.89 15.6 40.91 16.06 40.96 16.53 41 17 41 17.4 41 17.79 40.97 18.19 40.93 18.35 40.91 18.52 40.89 18.68 40.86 18.78 40.85 18.89 40.83 19 40.81ZM 32 28C 32 28 32 24 32 24 32 24 32 2 32 2 32 2 2 2 2 2 2 2 2 56 2 56 2 56 20.84 56 20.84 56 20.16 55.34 19.65 54.59 19.35 53.79 19.31 53.71 19.28 53.63 19.26 53.55 19.22 53.45 19.2 53.35 19.17 53.25 19.15 53.17 19.13 53.08 19.11 53 19.11 53 10.88 53 10.88 53 10.88 53 10.98 51.91 10.98 51.91 10.99 51.78 11 51.64 11 51.5 11 49.02 8.98 47 6.5 47 6.36 47 6.23 47.01 6.09 47.02 6.09 47.02 5 47.12 5 47.12 5 47.12 5 36.17 5 36.17 4.99 36.15 4.97 36.13 4.96 36.11 4.82 35.88 4.69 35.66 4.57 35.43 4.42 35.13 4.27 34.83 4.14 34.53 4.09 34.41 4.05 34.3 4 34.18 3.89 33.89 3.78 33.6 3.68 33.3 3.64 33.18 3.61 33.05 3.57 32.93 3.48 32.63 3.41 32.34 3.34 32.04 3.31 31.9 3.28 31.77 3.26 31.64 3.2 31.33 3.15 31.02 3.11 30.7 3.1 30.57 3.08 30.45 3.07 30.32 3.03 29.89 3 29.45 3 29 3 28.55 3.03 28.11 3.07 27.67 3.08 27.55 3.1 27.42 3.11 27.3 3.15 26.98 3.2 26.67 3.26 26.36 3.28 26.23 3.31 26.09 3.34 25.96 3.41 25.66 3.48 25.37 3.57 25.07 3.61 24.95 3.64 24.82 3.68 24.69 3.78 24.4 3.89 24.11 4.01 23.82 4.05 23.7 4.09 23.59 4.14 23.47 4.27 23.17 4.42 22.87 4.57 22.57 4.7 22.34 4.83 22.12 4.96 21.89 4.97 21.87 4.99 21.85 5 21.83 5 21.83 5 10.88 5 10.88 5 10.88 6.09 10.98 6.09 10.98 6.23 10.99 6.36 11 6.5 11 8.98 11 11 8.98 11 6.5 11 6.36 10.99 6.22 10.98 6.09 10.98 6.09 10.88 5 10.88 5 10.88 5 23.12 5 23.12 5 23.12 5 23.02 6.09 23.02 6.09 23.01 6.22 23 6.36 23 6.5 23 8.98 25.02 11 27.5 11 27.64 11 27.77 10.99 27.91 10.98 27.91 10.98 29 10.88 29 10.88 29 10.88 29 21.83 29 21.83 30.26 23.93 31 26.38 31 29 31 29.03 31 29.05 31 29.08 31.34 29.11 31.67 29.15 32 29.2 32 29.2 32 29.2 32 29.2 32 29.2 32 28 32 28ZM 33.97 31.78C 33.58 31.63 33.16 31.5 32.72 31.39 32.21 31.26 31.69 31.17 31.17 31.1 31.15 31.1 31.14 31.1 31.12 31.1 30.59 31.03 30.05 31 29.5 31 27.11 31 24.91 31.62 23.35 32.6 23.15 32.72 22.96 32.85 22.79 32.98 22.75 33.01 22.7 33.05 22.66 33.08 22.04 33.58 21.57 34.14 21.3 34.74 21.11 35.14 21 35.56 21 36 21 38.71 24.89 41 29.5 41 34.11 41 38 38.71 38 36 38 35.82 37.98 35.65 37.95 35.47 37.94 35.44 37.93 35.4 37.92 35.37 37.89 35.23 37.85 35.09 37.8 34.95 37.79 34.92 37.77 34.89 37.76 34.86 37.7 34.72 37.63 34.57 37.54 34.42 37.53 34.41 37.52 34.39 37.51 34.37 37.42 34.22 37.31 34.07 37.19 33.92 37.18 33.91 37.17 33.89 37.16 33.88 36.8 33.45 36.34 33.05 35.8 32.69 35.74 32.65 35.69 32.62 35.63 32.58 35.39 32.43 35.13 32.28 34.85 32.15 34.75 32.1 34.65 32.06 34.54 32.01 34.36 31.93 34.17 31.85 33.97 31.78ZM 35 2C 35 2 34 2 34 2 34 2 34 19.85 34 19.85 34.31 19.57 34.63 19.3 35 19.06 35 19.06 35 2 35 2ZM 38 2C 38 2 37 2 37 2 37 2 37 18.02 37 18.02 37.32 17.89 37.65 17.77 38 17.66 38 17.66 38 2 38 2ZM 41 2C 41 2 40 2 40 2 40 2 40 17.2 40 17.2 40.33 17.15 40.66 17.11 41 17.08 41 17.08 41 2 41 2ZM 42.5 19C 42.5 19 42.03 19.02 42.03 19.02 41.55 19.03 41.08 19.07 40.62 19.13 40.6 19.14 40.59 19.14 40.57 19.14 40.13 19.2 39.7 19.29 39.29 19.39 39.27 19.39 39.25 19.4 39.24 19.4 38.75 19.52 38.29 19.67 37.85 19.85 37.82 19.86 37.79 19.87 37.77 19.88 37.32 20.06 36.9 20.26 36.51 20.49 36.11 20.73 35.75 20.99 35.45 21.26 35.41 21.29 35.38 21.32 35.34 21.35 35.23 21.46 35.12 21.56 35.02 21.66 34.96 21.73 34.91 21.8 34.85 21.88 34.79 21.95 34.72 22.02 34.67 22.09 34.6 22.19 34.55 22.28 34.49 22.38 34.45 22.43 34.41 22.49 34.38 22.55 34.33 22.65 34.28 22.76 34.24 22.87 34.22 22.92 34.19 22.97 34.17 23.02 34.13 23.13 34.11 23.25 34.08 23.37 34.07 23.41 34.05 23.46 34.04 23.5 34.01 23.67 34 23.83 34 24 34 26.71 37.89 29 42.5 29 47.11 29 51 26.71 51 24 51 21.29 47.11 19 42.5 19ZM 27.5 10C 25.57 10 24 8.43 24 6.5 24 4.57 25.57 3 27.5 3 29.43 3 31 4.57 31 6.5 31 8.43 29.43 10 27.5 10ZM 27.5 5C 26.67 5 26 5.67 26 6.5 26 7.33 26.67 8 27.5 8 28.33 8 29 7.33 29 6.5 29 5.67 28.33 5 27.5 5ZM 6.5 10C 4.57 10 3 8.43 3 6.5 3 4.57 4.57 3 6.5 3 8.43 3 10 4.57 10 6.5 10 8.43 8.43 10 6.5 10ZM 6.5 5C 5.67 5 5 5.67 5 6.5 5 7.33 5.67 8 6.5 8 7.33 8 8 7.33 8 6.5 8 5.67 7.33 5 6.5 5ZM 6.5 48C 8.43 48 10 49.57 10 51.5 10 53.43 8.43 55 6.5 55 4.57 55 3 53.43 3 51.5 3 49.57 4.57 48 6.5 48ZM 6.5 53C 7.33 53 8 52.33 8 51.5 8 50.67 7.33 50 6.5 50 5.67 50 5 50.67 5 51.5 5 52.33 5.67 53 6.5 53Z" fill="rgb(0,0,0)"/></g></svg>