<?xml version="1.0" encoding="utf-8"?>
<svg xmlns="http://www.w3.org/2000/svg"
	xmlns:xlink="http://www.w3.org/1999/xlink"
	width="38px" height="50px" viewBox="0 0 38 50">
<filter filterUnits="objectBoundingBox" x="0.00" y="0.00" width="100.00" height="100.00" id="filter0">
<feFlood flood-color="rgb(255,255,255)" result="coFloodOut1"/>
<feComposite in="coFloodOut1" in2="SourceAlpha" operator="in" result="coOverlay1"/>
<feBlend in="coOverlay1" in2="SourceGraphic" mode="normal" result="colorOverlay1"/>
</filter>
<g transform="matrix(0.08 0.00 0.00 0.08 0.00 0.00)" filter="url(#filter0)"><path fillRule="evenodd" d="M 432.93 612C 432.93 612 31.07 612 31.07 612 13.94 612 0 598.07 0 580.94 0 580.94 0 31.06 0 31.06 0 13.93 13.94-0 31.07-0 31.07-0 337.75-0 337.75-0 340.38-0 342.91 1.04 344.77 2.9 344.77 2.9 461.1 119.22 461.1 119.22 462.96 121.08 464 123.6 464 126.23 464 126.23 464 580.94 464 580.94 464 598.07 450.06 612 432.93 612ZM 347.67 33.85C 347.67 33.85 347.67 105.08 347.67 105.08 347.67 111.28 352.71 116.32 358.91 116.32 358.91 116.32 430.15 116.32 430.15 116.32 430.15 116.32 347.67 33.85 347.67 33.85ZM 444.17 136.15C 444.17 136.15 358.91 136.15 358.91 136.15 341.78 136.15 327.84 122.21 327.84 105.08 327.84 105.08 327.84 19.83 327.84 19.83 327.84 19.83 31.07 19.83 31.07 19.83 24.87 19.83 19.83 24.87 19.83 31.06 19.83 31.06 19.83 580.94 19.83 580.94 19.83 587.13 24.87 592.17 31.07 592.17 31.07 592.17 432.93 592.17 432.93 592.17 439.13 592.17 444.17 587.13 444.17 580.94 444.17 580.94 444.17 136.15 444.17 136.15ZM 348.33 537.98C 319.54 537.98 296.11 514.56 296.11 485.77 296.11 456.98 319.54 433.56 348.33 433.56 377.12 433.56 400.55 456.98 400.55 485.77 400.55 514.56 377.12 537.98 348.33 537.98ZM 348.33 453.38C 330.47 453.38 315.94 467.91 315.94 485.77 315.94 503.62 330.47 518.15 348.33 518.15 366.19 518.15 380.72 503.62 380.72 485.77 380.72 467.91 366.19 453.38 348.33 453.38ZM 348.33 503.61C 338.49 503.61 330.48 495.61 330.48 485.77 330.48 475.93 338.49 467.92 348.33 467.92 358.17 467.92 366.18 475.93 366.18 485.77 366.18 495.61 358.17 503.61 348.33 503.61ZM 390.63 379.36C 390.63 379.36 73.37 379.36 73.37 379.36 67.89 379.36 63.45 374.92 63.45 369.45 63.45 363.97 67.89 359.53 73.37 359.53 73.37 359.53 390.63 359.53 390.63 359.53 396.11 359.53 400.55 363.97 400.55 369.45 400.55 374.92 396.11 379.36 390.63 379.36ZM 390.63 326.49C 390.63 326.49 73.37 326.49 73.37 326.49 67.89 326.49 63.45 322.05 63.45 316.57 63.45 311.1 67.89 306.66 73.37 306.66 73.37 306.66 390.63 306.66 390.63 306.66 396.11 306.66 400.55 311.1 400.55 316.57 400.55 322.05 396.11 326.49 390.63 326.49ZM 390.63 273.62C 390.63 273.62 73.37 273.62 73.37 273.62 67.89 273.62 63.45 269.18 63.45 263.7 63.45 258.23 67.89 253.79 73.37 253.79 73.37 253.79 390.63 253.79 390.63 253.79 396.11 253.79 400.55 258.23 400.55 263.7 400.55 269.18 396.11 273.62 390.63 273.62ZM 295.45 220.74C 295.45 220.74 168.55 220.74 168.55 220.74 163.07 220.74 158.63 216.3 158.63 210.83 158.63 205.35 163.07 200.92 168.55 200.92 168.55 200.92 295.45 200.92 295.45 200.92 300.93 200.92 305.37 205.35 305.37 210.83 305.37 216.3 300.93 220.74 295.45 220.74ZM 189.7 136.15C 189.7 136.15 73.37 136.15 73.37 136.15 67.89 136.15 63.45 131.71 63.45 126.23 63.45 120.76 67.89 116.32 73.37 116.32 73.37 116.32 189.7 116.32 189.7 116.32 195.17 116.32 199.61 120.76 199.61 126.23 199.61 131.71 195.17 136.15 189.7 136.15ZM 147.4 83.27C 147.4 83.27 73.37 83.27 73.37 83.27 67.89 83.27 63.45 78.84 63.45 73.36 63.45 67.89 67.89 63.45 73.37 63.45 73.37 63.45 147.4 63.45 147.4 63.45 152.87 63.45 157.31 67.89 157.31 73.36 157.31 78.84 152.87 83.27 147.4 83.27ZM 189.7 444.13C 189.7 444.13 263.73 444.13 263.73 444.13 269.2 444.13 273.64 448.57 273.64 454.04 273.64 459.52 269.2 463.96 263.73 463.96 263.73 463.96 189.7 463.96 189.7 463.96 184.22 463.96 179.78 459.52 179.78 454.04 179.78 448.57 184.22 444.13 189.7 444.13ZM 189.7 497C 189.7 497 263.73 497 263.73 497 269.2 497 273.64 501.44 273.64 506.92 273.64 512.39 269.2 516.83 263.73 516.83 263.73 516.83 189.7 516.83 189.7 516.83 184.22 516.83 179.78 512.39 179.78 506.92 179.78 501.44 184.22 497 189.7 497Z" fill="rgb(0,0,0)"/></g></svg>