<?xml version="1.0" encoding="utf-8"?>
<svg xmlns="http://www.w3.org/2000/svg"
	xmlns:xlink="http://www.w3.org/1999/xlink"
	width="50px" height="50px" viewBox="0 0 50 50">
<filter filterUnits="objectBoundingBox" x="0.00" y="0.00" width="100.00" height="100.00" id="filter0">
<feFlood flood-color="rgb(255,255,255)" result="coFloodOut1"/>
<feComposite in="coFloodOut1" in2="SourceAlpha" operator="in" result="coOverlay1"/>
<feBlend in="coOverlay1" in2="SourceGraphic" mode="normal" result="colorOverlay1"/>
</filter>
<g transform="matrix(0.10 0.00 0.00 0.10 0.00 0.00)" filter="url(#filter0)"><path fillRule="evenodd" d="M 486.41 386.58C 482.54 388.81 477.6 387.49 475.36 383.63 473.13 379.76 474.45 374.82 478.31 372.58 489.12 366.33 495.83 354.7 495.83 342.23 495.83 342.23 495.83 51.2 495.83 51.2 495.83 31.88 480.12 16.17 460.8 16.17 460.8 16.17 51.2 16.17 51.2 16.17 31.88 16.17 16.17 31.88 16.17 51.2 16.17 51.2 16.17 342.23 16.17 342.23 16.17 361.55 31.88 377.26 51.2 377.26 51.2 377.26 72.76 377.26 72.76 377.26 77.22 377.26 80.84 380.88 80.84 385.35 80.84 389.81 77.22 393.43 72.76 393.43 72.76 393.43 51.2 393.43 51.2 393.43 22.97 393.43 0 370.46 0 342.23 0 342.23 0 51.2 0 51.2 0 22.97 22.97 0 51.2 0 51.2 0 460.8 0 460.8 0 489.03 0 512 22.97 512 51.2 512 51.2 512 342.23 512 342.23 512 360.45 502.19 377.44 486.41 386.58ZM 8.08 495.83C 8.08 495.83 9.16 495.83 9.16 495.83 13.63 495.83 17.25 499.45 17.25 503.92 17.25 508.38 13.63 512 9.16 512 9.16 512 8.08 512 8.08 512 3.62 512 0 508.38 0 503.92 0 499.45 3.62 495.83 8.08 495.83ZM 310.43 140.13C 314.9 140.13 318.52 143.74 318.52 148.21 318.52 152.68 314.9 156.29 310.43 156.29 310.43 156.29 234.98 156.29 234.98 156.29 230.51 156.29 226.9 152.68 226.9 148.21 226.9 143.74 230.51 140.13 234.98 140.13 234.98 140.13 310.43 140.13 310.43 140.13ZM 202.64 140.13C 207.11 140.13 210.73 143.74 210.73 148.21 210.73 152.68 207.11 156.29 202.64 156.29 202.64 156.29 201.57 156.29 201.57 156.29 197.1 156.29 193.48 152.68 193.48 148.21 193.48 143.74 197.1 140.13 201.57 140.13 201.57 140.13 202.64 140.13 202.64 140.13ZM 156.29 105.09C 156.29 100.63 159.91 97.01 164.38 97.01 164.38 97.01 347.62 97.01 347.62 97.01 352.09 97.01 355.7 100.63 355.7 105.09 355.7 109.56 352.09 113.18 347.62 113.18 347.62 113.18 164.38 113.18 164.38 113.18 159.91 113.18 156.29 109.56 156.29 105.09ZM 72.76 334.15C 72.76 334.15 94.32 334.15 94.32 334.15 98.78 334.15 102.4 337.77 102.4 342.23 102.4 346.7 98.78 350.32 94.32 350.32 94.32 350.32 72.76 350.32 72.76 350.32 56.41 350.32 43.12 337.02 43.12 320.67 43.12 320.67 43.12 72.76 43.12 72.76 43.12 56.41 56.41 43.12 72.76 43.12 72.76 43.12 439.24 43.12 439.24 43.12 455.59 43.12 468.88 56.41 468.88 72.76 468.88 72.76 468.88 320.67 468.88 320.67 468.88 337.02 455.59 350.31 439.24 350.31 434.78 350.31 431.16 346.7 431.16 342.23 431.16 337.77 434.78 334.15 439.24 334.15 446.67 334.15 452.72 328.1 452.72 320.67 452.72 320.67 452.72 72.76 452.72 72.76 452.72 65.33 446.67 59.28 439.24 59.28 439.24 59.28 72.76 59.28 72.76 59.28 65.33 59.28 59.28 65.33 59.28 72.76 59.28 72.76 59.28 320.67 59.28 320.67 59.28 328.1 65.33 334.15 72.76 334.15ZM 40.42 495.83C 40.42 495.83 86.23 495.83 86.23 495.83 86.23 495.83 86.23 428.46 86.23 428.46 86.23 385.21 112.5 347.97 149.93 331.87 150.31 331.67 150.7 331.51 151.11 331.37 152.42 330.83 153.73 330.31 155.06 329.82 135.49 318.51 121.64 298.37 119.03 274.86 119.03 274.86 94.31 274.86 94.31 274.86 89.85 274.86 86.23 271.25 86.23 266.78 86.23 266.78 86.23 245.22 86.23 245.22 86.23 216.99 109.2 194.02 137.43 194.02 137.43 194.02 180.54 194.02 180.54 194.02 180.54 194.02 191.32 194.02 191.32 194.02 231.44 194.02 264.08 226.66 264.08 266.78 264.08 293.7 249.38 317.23 227.59 329.82 228.98 330.33 230.36 330.87 231.73 331.44 231.86 331.48 231.98 331.53 232.11 331.59 247.52 338.07 261.3 348.22 272.2 361.35 282.76 348.66 296.25 338.48 311.62 331.87 311.99 331.67 312.39 331.51 312.8 331.37 314.11 330.83 315.42 330.31 316.75 329.82 294.96 317.23 280.25 293.7 280.25 266.78 280.25 226.66 312.89 194.02 353.01 194.02 393.13 194.02 425.77 226.66 425.77 266.78 425.77 293.7 411.06 317.24 389.27 329.82 390.6 330.31 391.92 330.83 393.22 331.37 393.63 331.51 394.03 331.67 394.41 331.87 431.83 347.97 458.1 385.21 458.1 428.46 458.1 428.46 458.1 495.83 458.1 495.83 458.1 495.83 471.58 495.83 471.58 495.83 476.04 495.83 479.66 499.45 479.66 503.92 479.66 508.38 476.04 512 471.58 512 471.58 512 40.42 512 40.42 512 35.95 512 32.33 508.38 32.33 503.92 32.33 499.45 35.95 495.83 40.42 495.83ZM 172.46 210.19C 172.46 210.19 137.43 210.19 137.43 210.19 118.11 210.19 102.4 225.9 102.4 245.22 102.4 245.22 102.4 258.69 102.4 258.69 102.4 258.69 137.43 258.69 137.43 258.69 156.75 258.69 172.46 242.98 172.46 223.66 172.46 223.66 172.46 210.19 172.46 210.19ZM 191.32 210.19C 191.32 210.19 188.63 210.19 188.63 210.19 188.63 210.19 188.63 223.66 188.63 223.66 188.63 251.89 165.66 274.86 137.43 274.86 137.43 274.86 135.32 274.86 135.32 274.86 136.78 284.99 140.92 294.25 147.01 301.91 147.4 301.85 147.8 301.81 148.21 301.81 179.41 301.81 204.8 276.42 204.8 245.22 204.8 240.75 208.42 237.14 212.88 237.14 217.35 237.14 220.97 240.75 220.97 245.22 220.97 249.83 220.52 254.32 219.7 258.69 219.7 258.69 247.33 258.69 247.33 258.69 243.39 231.31 219.78 210.19 191.32 210.19ZM 247.33 274.86C 247.33 274.86 214.63 274.86 214.63 274.86 205.33 295.62 186.59 311.25 163.9 316.25 172.03 320.78 181.38 323.37 191.33 323.37 219.78 323.37 243.39 302.25 247.33 274.86ZM 162.64 344.31C 165.96 357.12 177.61 366.48 191.33 366.48 205.05 366.48 216.71 357.11 220.02 344.29 210.91 341.19 201.23 339.54 191.33 339.54 181.29 339.54 171.65 341.23 162.64 344.31ZM 353.01 210.19C 321.81 210.19 296.42 235.58 296.42 266.78 296.42 280.05 301.02 292.25 308.69 301.91 309.09 301.85 309.49 301.81 309.89 301.81 341.1 301.81 366.48 276.42 366.48 245.22 366.48 240.75 370.1 237.14 374.57 237.14 379.03 237.14 382.65 240.75 382.65 245.22 382.65 249.83 382.2 254.32 381.38 258.69 381.38 258.69 409.01 258.69 409.01 258.69 405.08 231.31 381.47 210.19 353.01 210.19ZM 409.01 274.86C 409.01 274.86 376.31 274.86 376.31 274.86 367.02 295.62 348.28 311.25 325.59 316.25 333.72 320.78 343.06 323.37 353.01 323.37 381.47 323.37 405.08 302.25 409.01 274.86ZM 324.32 344.31C 327.64 357.12 339.3 366.48 353.01 366.48 366.72 366.48 378.38 357.12 381.7 344.31 372.69 341.23 363.05 339.54 353.01 339.54 342.97 339.54 333.33 341.23 324.32 344.31ZM 264.08 495.83C 264.08 495.83 441.94 495.83 441.94 495.83 441.94 495.83 441.94 428.46 441.94 428.46 441.94 395.25 423.62 366.26 396.58 350.99 390.6 369.43 373.26 382.65 353.01 382.65 332.76 382.65 315.42 369.43 309.44 350.99 282.4 366.26 264.08 395.25 264.08 428.46 264.08 428.46 264.08 495.83 264.08 495.83ZM 102.4 495.83C 102.4 495.83 247.92 495.83 247.92 495.83 247.92 495.83 247.92 428.46 247.92 428.46 247.92 409.01 253.23 390.78 262.49 375.13 254.97 365.11 245.55 356.92 234.91 350.94 228.94 369.41 211.59 382.65 191.33 382.65 171.08 382.65 153.74 369.43 147.76 350.99 120.71 366.26 102.4 395.25 102.4 428.46 102.4 428.46 102.4 495.83 102.4 495.83Z" fill="rgb(0,0,0)"/></g></svg>