<?xml version="1.0" encoding="utf-8"?>
<svg xmlns="http://www.w3.org/2000/svg"
	xmlns:xlink="http://www.w3.org/1999/xlink"
	width="29px" height="36px" viewBox="0 0 29 36">
<g transform="matrix(0.05 0.00 0.00 0.04 0.00 0.00)"><path fillRule="evenodd" d="M 637.29 380.88C 637.13 382.05 636.46 385.58 635.11 391.61 630.25 413.42 623.03 434.55 613.63 454.84 579.07 536.18 502.89 661.13 336.26 794.97 332.07 798.32 327.03 800 322 800 316.97 800 311.93 798.32 307.74 794.97 140.94 661.13 64.93 536.18 30.37 454.84 20.97 434.55 13.75 413.25 8.89 391.61 7.54 385.58 6.87 382.05 6.71 380.88 2.85 361.09 1 340.8 1 320.67 1 143.9 144.97 0 321.83 0 498.69 0 642.66 143.9 643 320.67 643 340.8 640.99 361.09 637.29 380.88ZM 321.83 45.12C 169.97 45.12 46.31 168.72 46.31 320.5 46.31 338.11 47.98 355.56 51.34 372.83 51.34 373.33 51.51 373.67 51.51 374 51.68 374.84 52.01 377.36 53.02 381.22 53.02 381.38 53.02 381.38 53.02 381.55 57.38 400.34 63.59 418.78 71.64 436.23 71.81 436.39 71.81 436.73 71.98 436.9 103.36 511.2 172.16 624.57 321.83 748.18 471.51 624.57 540.31 511.2 571.68 436.9 571.85 436.73 571.85 436.39 572.02 436.23 580.24 418.62 586.45 400.34 590.65 381.55 590.65 381.38 590.65 381.38 590.65 381.22 591.48 377.36 591.99 374.84 592.16 374 592.16 373.67 592.32 373.33 592.32 373 595.68 355.89 597.36 338.28 597.36 320.5 597.36 168.72 473.69 45.12 321.83 45.12ZM 321.83 527.8C 209.57 527.8 118.12 436.39 118.12 324.19 118.12 211.99 209.57 120.59 321.83 120.59 434.09 120.59 525.54 211.99 525.54 324.19 525.54 436.39 434.09 527.8 321.83 527.8ZM 321.83 165.87C 234.58 165.87 163.43 236.98 163.43 324.19 163.43 411.4 234.41 482.52 321.83 482.52 409.26 482.52 480.23 411.4 480.23 324.19 480.23 236.98 409.09 165.87 321.83 165.87Z" fill="rgb(0,0,0)"/></g></svg>