<?xml version="1.0" encoding="utf-8"?>
<svg xmlns="http://www.w3.org/2000/svg"
	xmlns:xlink="http://www.w3.org/1999/xlink"
	width="56px" height="40px" viewBox="0 0 56 40">
<filter filterUnits="objectBoundingBox" x="0.00" y="0.00" width="100.00" height="100.00" id="filter0">
<feFlood flood-color="rgb(255,255,255)" result="coFloodOut1"/>
<feComposite in="coFloodOut1" in2="SourceAlpha" operator="in" result="coOverlay1"/>
<feBlend in="coOverlay1" in2="SourceGraphic" mode="normal" result="colorOverlay1"/>
</filter>
<g transform="matrix(0.09 0.00 0.00 0.09 0.00 0.00)" filter="url(#filter0)"><path fillRule="evenodd" d="M 602.09 423.16C 602.09 423.16 537.98 423.16 537.98 423.16 537.98 423.16 537.98 336.3 537.98 336.3 562.04 331.89 580.28 311.74 580.28 287.62 580.28 275.41 575.4 245.02 567.51 217.19 556.2 177.28 543.67 158.69 528.06 158.69 512.46 158.69 499.93 177.28 488.62 217.19 480.73 245.02 475.85 275.41 475.85 287.62 475.85 311.74 494.09 331.89 518.15 336.3 518.15 336.3 518.15 423.16 518.15 423.16 518.15 423.16 453.38 423.16 453.38 423.16 453.38 423.16 453.38 176.89 453.38 176.89 465.66 172.74 474.53 161.11 474.53 147.45 474.53 147.45 474.53 105.13 474.53 105.13 474.53 99.65 470.09 95.21 464.62 95.21 464.62 95.21 453.38 95.21 453.38 95.21 453.38 95.21 453.38 83.31 453.38 83.31 453.38 83.31 475.19 83.31 475.19 83.31 480.67 83.31 485.11 78.87 485.11 73.39 485.11 67.92 480.67 63.47 475.19 63.47 475.19 63.47 411.75 63.47 411.75 63.47 406.27 63.47 401.83 67.92 401.83 73.39 401.83 78.87 406.27 83.31 411.75 83.31 411.75 83.31 433.56 83.31 433.56 83.31 433.56 83.31 433.56 95.21 433.56 95.21 433.56 95.21 422.32 95.21 422.32 95.21 416.84 95.21 412.41 99.65 412.41 105.13 412.41 105.13 412.41 147.45 412.41 147.45 412.41 161.11 421.28 172.74 433.56 176.89 433.56 176.89 433.56 423.16 433.56 423.16 433.56 423.16 398.89 423.16 398.89 423.16 398.89 423.16 392.16 390.1 392.16 390.1 392.16 390.1 401.17 390.1 401.17 390.1 406.65 390.1 411.08 385.66 411.08 380.19 411.08 374.71 406.65 370.27 401.17 370.27 401.17 370.27 380.11 370.27 380.11 370.27 380.06 370.27 380.02 370.27 379.97 370.27 379.97 370.27 379.36 370.27 379.36 370.27 379.36 370.27 379.36 347.79 379.36 347.79 379.36 347.79 390.6 347.79 390.6 347.79 396.07 347.79 400.51 343.35 400.51 337.87 400.51 332.39 396.07 327.95 390.6 327.95 390.6 327.95 379.36 327.95 379.36 327.95 379.36 327.95 379.36 316.05 379.36 316.05 379.36 316.05 390.6 316.05 390.6 316.05 396.07 316.05 400.51 311.61 400.51 306.13 400.51 300.66 396.07 296.21 390.6 296.21 390.6 296.21 200.25 296.21 200.25 296.21 194.78 296.21 190.34 300.66 190.34 306.13 190.34 311.61 194.78 316.05 200.25 316.05 200.25 316.05 211.49 316.05 211.49 316.05 211.49 316.05 211.49 327.95 211.49 327.95 211.49 327.95 200.25 327.95 200.25 327.95 194.78 327.95 190.34 332.39 190.34 337.87 190.34 343.35 194.78 347.79 200.25 347.79 200.25 347.79 211.49 347.79 211.49 347.79 211.49 347.79 211.49 370.27 211.49 370.27 211.49 370.27 210.87 370.27 210.87 370.27 210.83 370.27 210.79 370.27 210.76 370.27 210.76 370.27 189.68 370.27 189.68 370.27 184.2 370.27 179.77 374.71 179.77 380.19 179.77 385.66 184.2 390.1 189.68 390.1 189.68 390.1 198.69 390.1 198.69 390.1 198.69 390.1 191.96 423.16 191.96 423.16 191.96 423.16 115 423.16 115 423.16 115 423.16 115 326.02 115 326.02 156.62 321.1 189.02 285.6 189.02 242.66 189.02 168.15 117.14 12.34 114.08 5.74 112.45 2.24 108.94 0 105.08 0 101.22 0 97.72 2.24 96.09 5.74 93.03 12.34 21.15 168.15 21.15 242.66 21.15 285.6 53.55 321.1 95.17 326.02 95.17 326.02 95.17 423.16 95.17 423.16 95.17 423.16 9.91 423.16 9.91 423.16 4.44 423.16-0 427.6-0 433.08-0 438.56 4.44 443 9.91 443 9.91 443 602.09 443 602.09 443 607.56 443 612 438.56 612 433.08 612 427.6 607.56 423.16 602.09 423.16ZM 495.68 287.62C 495.68 278.78 499.56 252.31 506.85 225.62 517.45 186.81 526.37 179.68 528.06 178.65 529.76 179.68 538.67 186.81 549.28 225.62 556.57 252.31 560.45 278.78 560.45 287.62 560.45 300.85 551 312.08 537.98 315.94 537.98 315.94 537.98 295.55 537.98 295.55 537.98 290.08 533.54 285.64 528.06 285.64 522.59 285.64 518.15 290.08 518.15 295.55 518.15 295.55 518.15 315.94 518.15 315.94 505.13 312.08 495.68 300.85 495.68 287.62ZM 432.23 115.05C 432.23 115.05 454.7 115.05 454.7 115.05 454.7 115.05 454.7 147.45 454.7 147.45 454.7 153.64 449.66 158.69 443.47 158.69 437.27 158.69 432.23 153.64 432.23 147.45 432.23 147.45 432.23 115.05 432.23 115.05ZM 40.98 242.66C 40.98 187.61 85.55 79.17 105.08 34.28 124.62 79.17 169.19 187.61 169.19 242.66 169.19 274.65 145.66 301.24 115 306.02 115 306.02 115 274.4 115 274.4 115 274.4 115 274.39 115 274.39 115 274.39 115 246.77 115 246.77 115 246.77 143.82 217.93 143.82 217.93 147.69 214.06 147.69 207.78 143.82 203.91 139.95 200.03 133.67 200.03 129.8 203.91 129.8 203.91 115 218.71 115 218.71 115 218.71 115 200.34 115 200.34 115 194.86 110.56 190.42 105.08 190.42 99.61 190.42 95.17 194.86 95.17 200.34 95.17 200.34 95.17 242.65 95.17 242.65 95.17 242.66 95.17 242.66 95.17 242.66 95.17 242.66 95.17 250.45 95.17 250.45 95.17 250.45 80.37 235.65 80.37 235.65 76.5 231.77 70.22 231.77 66.35 235.65 62.48 239.52 62.48 245.8 66.35 249.67 66.35 249.67 95.17 278.5 95.17 278.5 95.17 278.5 95.17 306.02 95.17 306.02 64.51 301.24 40.98 274.65 40.98 242.66ZM 231.32 316.05C 231.32 316.05 359.53 316.05 359.53 316.05 359.53 316.05 359.53 327.95 359.53 327.95 359.53 327.95 231.32 327.95 231.32 327.95 231.32 327.95 231.32 316.05 231.32 316.05ZM 231.32 347.79C 231.32 347.79 359.53 347.79 359.53 347.79 359.53 347.79 359.53 370.27 359.53 370.27 359.53 370.27 231.32 370.27 231.32 370.27 231.32 370.27 231.32 347.79 231.32 347.79ZM 218.93 390.1C 218.93 390.1 371.93 390.1 371.93 390.1 371.93 390.1 378.66 423.16 378.66 423.16 378.66 423.16 212.19 423.16 212.19 423.16 212.19 423.16 218.93 390.1 218.93 390.1Z" fill="rgb(0,0,0)"/></g></svg>