<?xml version="1.0" encoding="utf-8"?>
<svg xmlns="http://www.w3.org/2000/svg"
	xmlns:xlink="http://www.w3.org/1999/xlink"
	width="51px" height="49px" viewBox="0 0 51 49">
<filter filterUnits="objectBoundingBox" x="0.00" y="0.00" width="100.00" height="100.00" id="filter0">
<feFlood flood-color="rgb(255,255,255)" result="coFloodOut1"/>
<feComposite in="coFloodOut1" in2="SourceAlpha" operator="in" result="coOverlay1"/>
<feBlend in="coOverlay1" in2="SourceGraphic" mode="normal" result="colorOverlay1"/>
</filter>
<g transform="matrix(0.29 0.00 0.00 0.29 0.00 0.00)" filter="url(#filter0)"><path fillRule="evenodd" d="M 171.52 70.58C 171.52 70.58 91.48 70.58 91.48 70.58 91.48 70.58 91.48 81.02 91.48 81.02 91.48 81.02 168.04 81.02 168.04 81.02 169.96 81.02 171.52 82.58 171.52 84.5 171.52 84.5 171.52 164.52 171.52 164.52 171.52 166.44 169.96 168 168.04 168 168.04 168 91.48 168 91.48 168 91.48 168 28.84 168 28.84 168 28.84 168 7.96 168 7.96 168 6.04 168 4.48 166.44 4.48 164.52 4.48 164.52 4.48 84.5 4.48 84.5 4.48 82.58 6.04 81.02 7.96 81.02 7.96 81.02 84.52 81.02 84.52 81.02 84.52 81.02 84.52 70.58 84.52 70.58 84.52 70.58 4.48 70.58 4.48 70.58 2.56 70.58 1 69.02 1 67.1 1 67.1 1 4.48 1 4.48 1 2.56 2.56 1 4.48 1 4.48 1 171.52 1 171.52 1 173.44 1 175 2.56 175 4.48 175 4.48 175 67.1 175 67.1 175 69.02 173.44 70.58 171.52 70.58ZM 32.32 161.04C 32.32 161.04 88 161.04 88 161.04 88 161.04 88 105.37 88 105.37 88 105.37 32.32 105.37 32.32 105.37 32.32 105.37 32.32 161.04 32.32 161.04ZM 11.44 87.98C 11.44 87.98 11.44 161.04 11.44 161.04 11.44 161.04 25.36 161.04 25.36 161.04 25.36 161.04 25.36 101.89 25.36 101.89 25.36 99.97 26.92 98.42 28.84 98.42 28.84 98.42 91.48 98.42 91.48 98.42 93.4 98.42 94.96 99.97 94.96 101.89 94.96 101.89 94.96 161.04 94.96 161.04 94.96 161.04 164.56 161.04 164.56 161.04 164.56 161.04 164.56 87.98 164.56 87.98 164.56 87.98 11.44 87.98 11.44 87.98ZM 168.04 7.96C 168.04 7.96 7.96 7.96 7.96 7.96 7.96 7.96 7.96 63.62 7.96 63.62 7.96 63.62 84.52 63.62 84.52 63.62 84.52 63.62 91.48 63.62 91.48 63.62 91.48 63.62 168.04 63.62 168.04 63.62 168.04 63.62 168.04 7.96 168.04 7.96ZM 91.48 46.23C 91.48 46.23 91.48 18.4 91.48 18.4 91.48 18.4 98.44 18.4 98.44 18.4 98.44 18.4 98.44 46.23 98.44 46.23 98.44 46.23 115.84 46.23 115.84 46.23 115.84 46.23 115.84 53.19 115.84 53.19 115.84 53.19 98.44 53.19 98.44 53.19 98.44 53.19 91.48 53.19 91.48 53.19 91.48 53.19 91.48 46.23 91.48 46.23ZM 147.16 18.4C 147.16 18.4 147.16 25.36 147.16 25.36 147.16 25.36 129.76 25.36 129.76 25.36 129.76 25.36 129.76 32.31 129.76 32.31 129.76 32.31 147.16 32.31 147.16 32.31 147.16 32.31 147.16 39.27 147.16 39.27 147.16 39.27 129.76 39.27 129.76 39.27 129.76 39.27 129.76 46.23 129.76 46.23 129.76 46.23 147.16 46.23 147.16 46.23 147.16 46.23 147.16 53.19 147.16 53.19 147.16 53.19 129.76 53.19 129.76 53.19 129.76 53.19 122.8 53.19 122.8 53.19 122.8 53.19 122.8 46.23 122.8 46.23 122.8 46.23 122.8 39.27 122.8 39.27 122.8 39.27 122.8 32.31 122.8 32.31 122.8 32.31 122.8 25.36 122.8 25.36 122.8 25.36 122.8 18.4 122.8 18.4 122.8 18.4 129.76 18.4 129.76 18.4 129.76 18.4 147.16 18.4 147.16 18.4ZM 77.56 39.27C 77.56 39.27 67.12 39.27 67.12 39.27 67.12 39.27 67.12 53.19 67.12 53.19 67.12 53.19 60.16 53.19 60.16 53.19 60.16 53.19 60.16 39.27 60.16 39.27 60.16 39.27 60.16 32.31 60.16 32.31 60.16 32.31 60.16 25.36 60.16 25.36 60.16 25.36 60.16 18.4 60.16 18.4 60.16 18.4 67.12 18.4 67.12 18.4 67.12 18.4 77.56 18.4 77.56 18.4 77.56 18.4 84.52 18.4 84.52 18.4 84.52 18.4 84.52 25.36 84.52 25.36 84.52 25.36 84.52 32.31 84.52 32.31 84.52 32.31 84.52 39.27 84.52 39.27 84.52 39.27 84.52 53.19 84.52 53.19 84.52 53.19 77.56 53.19 77.56 53.19 77.56 53.19 77.56 39.27 77.56 39.27ZM 77.56 25.36C 77.56 25.36 67.12 25.36 67.12 25.36 67.12 25.36 67.12 32.31 67.12 32.31 67.12 32.31 77.56 32.31 77.56 32.31 77.56 32.31 77.56 25.36 77.56 25.36ZM 28.84 46.23C 28.84 46.23 46.24 46.23 46.24 46.23 46.24 46.23 46.24 39.27 46.24 39.27 46.24 39.27 28.84 39.27 28.84 39.27 28.84 39.27 28.84 35.79 28.84 35.79 28.84 35.79 28.84 32.31 28.84 32.31 28.84 32.31 28.84 25.36 28.84 25.36 28.84 25.36 28.84 18.4 28.84 18.4 28.84 18.4 35.8 18.4 35.8 18.4 35.8 18.4 53.2 18.4 53.2 18.4 53.2 18.4 53.2 25.36 53.2 25.36 53.2 25.36 35.8 25.36 35.8 25.36 35.8 25.36 35.8 32.31 35.8 32.31 35.8 32.31 46.24 32.31 46.24 32.31 46.24 32.31 53.2 32.31 53.2 32.31 53.2 32.31 53.2 39.27 53.2 39.27 53.2 39.27 53.2 46.23 53.2 46.23 53.2 46.23 53.2 49.71 53.2 49.71 53.2 49.71 53.2 53.19 53.2 53.19 53.2 53.19 28.84 53.19 28.84 53.19 28.84 53.19 28.84 46.23 28.84 46.23ZM 150.64 136.69C 150.64 136.69 129.76 136.69 129.76 136.69 129.76 136.69 105.4 136.69 105.4 136.69 103.48 136.69 101.92 135.13 101.92 133.21 101.92 133.21 101.92 101.89 101.92 101.89 101.92 99.97 103.48 98.42 105.4 98.42 105.4 98.42 129.76 98.42 129.76 98.42 129.76 98.42 150.64 98.42 150.64 98.42 152.56 98.42 154.12 99.97 154.12 101.89 154.12 101.89 154.12 133.21 154.12 133.21 154.12 135.13 152.56 136.69 150.64 136.69ZM 126.28 105.37C 126.28 105.37 108.88 105.37 108.88 105.37 108.88 105.37 108.88 129.73 108.88 129.73 108.88 129.73 126.28 129.73 126.28 129.73 126.28 129.73 126.28 105.37 126.28 105.37ZM 147.16 105.37C 147.16 105.37 133.24 105.37 133.24 105.37 133.24 105.37 133.24 129.73 133.24 129.73 133.24 129.73 147.16 129.73 147.16 129.73 147.16 129.73 147.16 105.37 147.16 105.37ZM 70.6 129.73C 70.6 129.73 81.04 129.73 81.04 129.73 81.04 129.73 81.04 136.69 81.04 136.69 81.04 136.69 70.6 136.69 70.6 136.69 70.6 136.69 70.6 129.73 70.6 129.73Z" fill="rgb(0,0,0)"/></g></svg>