<?xml version="1.0" encoding="utf-8"?>
<svg xmlns="http://www.w3.org/2000/svg"
	xmlns:xlink="http://www.w3.org/1999/xlink"
	width="54px" height="47px" viewBox="0 0 54 47">
<filter filterUnits="objectBoundingBox" x="0.00" y="0.00" width="100.00" height="100.00" id="filter0">
<feFlood flood-color="rgb(255,255,255)" result="coFloodOut1"/>
<feComposite in="coFloodOut1" in2="SourceAlpha" operator="in" result="coOverlay1"/>
<feBlend in="coOverlay1" in2="SourceGraphic" mode="normal" result="colorOverlay1"/>
</filter>
<g transform="matrix(0.90 0.00 0.00 0.90 0.00 0.00)" filter="url(#filter0)"><path fillRule="evenodd" d="M 60 30.63C 60 30.63 60 20 60 20 60 20 58.73 20 58.73 20 54.83 20 51.3 21.53 48.67 24 48.67 24 47 24 47 24 47 24 47 23 47 23 47 23 48 23 48 23 48.55 23 49 22.55 49 22 49 21.45 48.55 21 48 21 48 21 47 21 47 21 47 21 39 21 39 21 39 21 38 21 38 21 37.45 21 37 21.45 37 22 37 22.55 37.45 23 38 23 38 23 39 23 39 23 39 23 39 24 39 24 39 24 34.31 24 34.31 24 34.75 23.11 35 21.84 35 20 35 18.12 34.75 17.48 34.3 16.52 34.18 16.27 34.05 15.99 33.9 15.63 33.9 15.63 33.65 15 33.65 15 33.65 15 31 15 31 15 31 15 31 12.41 31 12.41 31 12.41 32.71 10.71 32.71 10.71 33.1 10.32 33.1 9.68 32.71 9.29 32.32 8.9 31.68 8.9 31.29 9.29 31.29 9.29 31 9.59 31 9.59 31 9.59 31 9 31 9 31 9 31 8 31 8 31 8 31 7.86 31 7.86 32.72 7.41 34 5.86 34 4 34 4 34 2 34 2 34 2 31 2 31 2 31 2 31-0 31-0 31-0 26-0 26-0 26-0 26 5 26 5 26 6.86 27.28 8.41 29 8.86 29 8.86 29 11.59 29 11.59 29 11.59 28.71 11.29 28.71 11.29 28.32 10.9 27.68 10.9 27.29 11.29 26.9 11.68 26.9 12.32 27.29 12.71 27.29 12.71 29 14.41 29 14.41 29 14.41 29 15 29 15 29 15 26.35 15 26.35 15 26.35 15 26.1 15.63 26.1 15.63 25.95 15.99 25.82 16.27 25.7 16.52 25.25 17.48 25 18.12 25 20 25 21.84 25.25 23.11 25.69 24 25.69 24 21 24 21 24 21 24 21 23 21 23 21 23 22 23 22 23 22.55 23 23 22.55 23 22 23 21.45 22.55 21 22 21 22 21 21 21 21 21 21 21 13 21 13 21 13 21 12 21 12 21 11.45 21 11 21.45 11 22 11 22.55 11.45 23 12 23 12 23 13 23 13 23 13 23 13 24 13 24 13 24 11.33 24 11.33 24 8.7 21.53 5.16 20 1.27 20 1.27 20 0 20 0 20 0 20 0 30.63 0 30.63 0 33.38 2.08 35.62 4.73 35.94 4.73 35.94 1.03 50.76 1.03 50.76 0.9 51.29 1.22 51.84 1.76 51.97 1.84 51.99 1.92 52 2 52 2.45 52 2.86 51.7 2.97 51.24 2.97 51.24 6.55 36.92 6.55 36.92 6.55 36.92 11.04 51.3 11.04 51.3 11.18 51.73 11.57 52 12 52 12.1 52 12.2 51.98 12.3 51.95 12.83 51.79 13.12 51.23 12.95 50.7 12.95 50.7 8.36 36 8.36 36 8.36 36 16 36 16 36 16 36 16 34.73 16 34.73 16 33.07 15.71 31.49 15.21 30 15.21 30 24 30 24 30 24 30 24 34 24 34 24 34 27 34 27 34 27 34 27 42 27 42 27 46.41 23.41 50 19 50 19 50 15 50 15 50 14.45 50 14 50.45 14 51 14 51.55 14.45 52 15 52 15 52 19 52 19 52 19 52 41 52 41 52 41 52 45 52 45 52 45.55 52 46 51.55 46 51 46 50.45 45.55 50 45 50 45 50 41 50 41 50 36.59 50 33 46.41 33 42 33 42 33 34 33 34 33 34 36 34 36 34 36 34 36 30 36 30 36 30 44.79 30 44.79 30 44.29 31.49 44 33.07 44 34.73 44 34.73 44 36 44 36 44 36 50.72 36 50.72 36 50.72 36 47.03 50.76 47.03 50.76 46.9 51.29 47.22 51.84 47.76 51.97 47.84 51.99 47.92 52 48 52 48.45 52 48.86 51.7 48.97 51.24 48.97 51.24 52.55 36.92 52.55 36.92 52.55 36.92 57.04 51.3 57.04 51.3 57.18 51.73 57.57 52 58 52 58.1 52 58.2 51.98 58.3 51.95 58.83 51.79 59.12 51.23 58.95 50.7 58.95 50.7 54.36 36 54.36 36 54.36 36 54.63 36 54.63 36 57.59 36 60 33.59 60 30.63ZM 41 23C 41 23 45 23 45 23 45 23 45 24 45 24 45 24 41 24 41 24 41 24 41 23 41 23ZM 32 4C 32 4.74 31.6 5.39 31 5.73 31 5.73 31 4 31 4 31 4 32 4 32 4ZM 28 5C 28 5 28 2 28 2 28 2 29 2 29 2 29 2 29 6.73 29 6.73 28.4 6.39 28 5.74 28 5ZM 27 20C 27 18.47 27.16 18.13 27.51 17.37 27.57 17.25 27.63 17.13 27.68 17 27.68 17 32.31 17 32.31 17 32.37 17.13 32.43 17.25 32.48 17.37 32.84 18.13 33 18.47 33 20 33 24 32.06 24 30 24 27.94 24 27 24 27 20ZM 15 23C 15 23 19 23 19 23 19 23 19 24 19 24 19 24 15 24 15 24 15 24 15 23 15 23ZM 5.37 34C 3.51 34 2 32.49 2 30.63 2 30.63 2 22.02 2 22.02 6.01 22.25 9.53 24.34 11.7 27.44 12.13 28.06 12.51 28.72 12.83 29.42 12.83 29.42 12.93 29.65 12.93 29.65 13.52 31 13.89 32.46 13.98 34 13.98 34 5.37 34 5.37 34ZM 34 32C 34 32 31 32 31 32 31 32 31 42 31 42 31 45.27 32.57 48.17 35.01 50 35.01 50 24.99 50 24.99 50 27.42 48.17 29 45.27 29 42 29 42 29 32 29 32 29 32 26 32 26 32 26 32 26 30 26 30 26 30 34 30 34 30 34 30 34 32 34 32ZM 45.64 28C 45.64 28 36 28 36 28 36 28 24 28 24 28 24 28 14.36 28 14.36 28 14.35 27.99 14.35 27.97 14.34 27.96 14.22 27.72 14.09 27.5 13.95 27.27 13.85 27.1 13.75 26.93 13.64 26.76 13.53 26.6 13.43 26.44 13.32 26.28 13.25 26.19 13.19 26.09 13.13 26 13.13 26 21 26 21 26 21 26 39 26 39 26 39 26 46.87 26 46.87 26 46.8 26.09 46.75 26.19 46.68 26.28 46.57 26.44 46.46 26.6 46.36 26.76 46.25 26.93 46.15 27.1 46.05 27.27 45.91 27.5 45.78 27.72 45.66 27.96 45.65 27.97 45.64 27.99 45.64 28ZM 47.06 29.65C 47.06 29.65 47.17 29.42 47.17 29.42 47.49 28.72 47.87 28.06 48.3 27.44 50.47 24.34 53.99 22.25 58 22.02 58 22.02 58 30.63 58 30.63 58 32.49 56.49 34 54.63 34 54.63 34 46.02 34 46.02 34 46.11 32.46 46.48 31 47.06 29.65Z" fill="rgb(0,0,0)"/></g></svg>