<?xml version="1.0" encoding="utf-8"?>
<svg xmlns="http://www.w3.org/2000/svg"
	xmlns:xlink="http://www.w3.org/1999/xlink"
	width="45px" height="51px" viewBox="0 0 45 51">
<filter filterUnits="objectBoundingBox" x="0.00" y="0.00" width="100.00" height="100.00" id="filter0">
<feFlood flood-color="rgb(255,255,255)" result="coFloodOut1"/>
<feComposite in="coFloodOut1" in2="SourceAlpha" operator="in" result="coOverlay1"/>
<feBlend in="coOverlay1" in2="SourceGraphic" mode="normal" result="colorOverlay1"/>
</filter>
<g transform="matrix(0.08 0.00 0.00 0.08 0.00 0.00)" filter="url(#filter0)"><path fillRule="evenodd" d="M 326.5 327.53C 326.5 327.53 327.78 307.06 327.78 307.06 344.49 312.94 362 315.91 380.04 315.91 467.14 315.91 538 245.06 538 157.96 538 70.86 467.14-0 380.04-0 296.27-0 227.53 65.55 222.39 148.04 222.39 148.04 173.31 148.04 173.31 148.04 149.89 148.04 128.17 157.44 112.13 174.51 96.1 191.57 88.07 213.84 89.53 237.21 89.53 237.21 95.18 327.53 95.18 327.53 95.28 366.61 111.75 401.57 137.47 424.67 137.47 424.67 137.47 440.47 137.47 440.47 137.47 440.47 120.05 466.6 120.05 466.6 120.05 466.6 38.47 488.85 38.47 488.85 15.82 495.03 0 515.74 0 539.22 0 539.22 0 580.94 0 580.94 0 598.07 13.94 612 31.06 612 31.06 612 390.61 612 390.61 612 407.74 612 421.68 598.07 421.68 580.94 421.68 580.94 421.68 539.22 421.68 539.22 421.68 515.74 405.85 495.03 383.2 488.85 383.2 488.85 301.63 466.6 301.63 466.6 301.63 466.6 284.2 440.47 284.2 440.47 284.2 440.47 284.2 424.67 284.2 424.67 309.93 401.57 326.39 366.61 326.5 327.53ZM 210.84 483.44C 210.84 483.44 158.06 439.45 158.06 439.45 173.89 448.35 191.84 453.38 210.84 453.38 229.84 453.38 247.79 448.35 263.62 439.45 263.62 439.45 210.84 483.44 210.84 483.44ZM 149.52 458.15C 149.52 458.15 196.15 497.01 196.15 497.01 196.15 497.01 170.65 522.51 170.65 522.51 170.58 522.57 170.41 522.72 170.12 522.7 169.81 522.67 169.68 522.49 169.63 522.41 169.63 522.41 138.15 475.19 138.15 475.19 138.15 475.19 149.52 458.15 149.52 458.15ZM 210.84 559.13C 211.67 559.13 212.49 559.09 213.3 559.02 213.3 559.02 220.11 592.17 220.11 592.17 220.11 592.17 201.57 592.17 201.57 592.17 201.57 592.17 208.37 559.02 208.37 559.02 209.19 559.09 210.01 559.13 210.84 559.13ZM 222.07 528.06C 222.07 534.26 217.03 539.3 210.84 539.3 204.64 539.3 199.6 534.26 199.6 528.06 199.6 528.06 199.6 521.6 199.6 521.6 199.6 521.6 210.84 510.36 210.84 510.36 210.84 510.36 222.07 521.6 222.07 521.6 222.07 521.6 222.07 528.06 222.07 528.06ZM 225.52 497.01C 225.52 497.01 272.16 458.15 272.16 458.15 272.16 458.15 283.52 475.19 283.52 475.19 283.52 475.19 252.04 522.41 252.04 522.41 251.99 522.49 251.87 522.67 251.56 522.7 251.26 522.72 251.09 522.58 251.03 522.51 251.03 522.51 225.52 497.01 225.52 497.01ZM 331.29 250.8C 343.78 246.06 356.79 243.19 370.12 242.24 370.12 242.24 370.12 294.82 370.12 294.82 355.67 291.12 341.97 279.39 330.67 260.84 330.67 260.84 331.29 250.8 331.29 250.8ZM 451.51 261.97C 455.11 264.16 458.62 266.52 462.03 269.05 454.56 274.58 446.51 279.37 438 283.32 441.69 278.55 445.19 273.29 448.46 267.56 449.51 265.73 450.52 263.87 451.51 261.97ZM 389.95 294.8C 389.95 294.8 389.95 242.29 389.95 242.29 405.09 243.38 419.88 246.97 433.74 252.86 422.25 275.07 406.9 290.43 389.95 294.8ZM 389.95 222.39C 389.95 222.39 389.95 167.87 389.95 167.87 389.95 167.87 454.52 167.87 454.52 167.87 453.53 192.3 448.93 215.2 441.72 234.69 425.35 227.71 407.86 223.52 389.95 222.39ZM 389.95 148.04C 389.95 148.04 389.95 93.53 389.95 93.53 407.86 92.39 425.35 88.2 441.72 81.22 448.93 100.72 453.53 123.62 454.52 148.04 454.52 148.04 389.95 148.04 389.95 148.04ZM 389.95 73.63C 389.95 73.63 389.95 21.11 389.95 21.11 406.9 25.48 422.25 40.85 433.74 63.06 419.88 68.95 405.09 72.53 389.95 73.63ZM 448.47 48.36C 445.19 42.62 441.69 37.36 438 32.59 446.51 36.55 454.56 41.34 462.03 46.86 458.62 49.39 455.11 51.75 451.51 53.94 450.52 52.05 449.51 50.18 448.47 48.36ZM 308.57 53.94C 304.96 51.75 301.45 49.39 298.04 46.86 305.52 41.34 313.56 36.55 322.07 32.59 318.38 37.36 314.89 42.62 311.61 48.36 310.56 50.18 309.55 52.05 308.57 53.94ZM 370.12 21.11C 370.12 21.11 370.12 73.63 370.12 73.63 354.98 72.53 340.2 68.95 326.33 63.06 337.83 40.85 353.17 25.48 370.12 21.11ZM 370.12 93.53C 370.12 93.53 370.12 148.04 370.12 148.04 370.12 148.04 305.55 148.04 305.55 148.04 306.54 123.62 311.15 100.72 318.36 81.22 334.72 88.2 352.21 92.39 370.12 93.53ZM 305.48 170.5C 305.47 169.69 305.45 168.8 305.44 167.87 305.44 167.87 370.12 167.87 370.12 167.87 370.12 167.87 370.12 222.38 370.12 222.38 357.2 223.18 344.53 225.56 332.26 229.47 331.7 208.96 323.79 189.68 309.54 174.51 308.23 173.11 306.87 171.79 305.48 170.5ZM 477.41 255.84C 471.74 251.39 465.82 247.35 459.66 243.74 468.31 221.18 473.36 195.17 474.35 167.87 474.35 167.87 517.81 167.87 517.81 167.87 515.37 202.14 500.38 232.99 477.41 255.84ZM 517.81 148.04C 517.81 148.04 474.35 148.04 474.35 148.04 473.36 120.75 468.31 94.73 459.66 72.17 465.81 68.56 471.74 64.53 477.41 60.08 500.38 82.93 515.37 113.78 517.81 148.04ZM 282.67 60.08C 288.33 64.52 294.26 68.56 300.41 72.17 291.77 94.73 286.72 120.75 285.72 148.04 285.72 148.04 248.37 148.04 248.37 148.04 248.37 148.04 242.26 148.04 242.26 148.04 244.7 113.78 259.7 82.92 282.67 60.08ZM 126.58 188.08C 138.83 175.05 155.42 167.87 173.31 167.87 173.31 167.87 231.99 167.87 231.99 167.87 231.99 167.87 248.37 167.87 248.37 167.87 266.25 167.87 282.85 175.05 295.09 188.08 307.34 201.12 313.47 218.13 312.35 235.98 312.35 235.98 310.49 265.81 310.49 265.81 302.09 248.76 293.4 237.39 292.7 236.48 289.98 232.97 285.25 231.69 281.14 233.36 231.34 253.54 137.75 253.79 136.81 253.79 134.59 253.79 132.43 254.53 130.69 255.91 130 256.45 120.84 263.81 111.93 277.69 111.93 277.69 109.32 235.98 109.32 235.98 108.21 218.13 114.34 201.12 126.58 188.08ZM 115.01 327.59C 117.99 298.05 134.5 279.53 140.64 273.59 158.47 273.36 232.63 271.4 281.17 254.52 289.32 266.82 306.67 296.57 306.67 327.15 306.67 385.82 263.68 433.56 210.84 433.56 158.13 433.56 115.23 386.06 115.01 327.59ZM 19.83 580.94C 19.83 580.94 19.83 539.22 19.83 539.22 19.83 524.66 29.64 511.81 43.69 507.98 43.69 507.98 121.95 486.64 121.95 486.64 121.95 486.64 153.13 533.41 153.13 533.41 156.55 538.53 162.03 541.82 168.16 542.43 168.85 542.5 169.53 542.53 170.2 542.53 174.35 542.53 178.35 541.27 181.75 538.94 183.47 543.54 186.25 547.62 189.8 550.89 189.8 550.89 181.33 592.17 181.33 592.17 181.33 592.17 93.85 592.17 93.85 592.17 93.85 592.17 93.85 559.79 93.85 559.79 93.85 554.31 89.42 549.87 83.94 549.87 78.46 549.87 74.02 554.31 74.02 559.79 74.02 559.79 74.02 592.17 74.02 592.17 74.02 592.17 31.06 592.17 31.06 592.17 24.87 592.17 19.83 587.13 19.83 580.94ZM 401.85 539.22C 401.85 539.22 401.85 580.94 401.85 580.94 401.85 587.13 396.81 592.17 390.61 592.17 390.61 592.17 347.65 592.17 347.65 592.17 347.65 592.17 347.65 559.79 347.65 559.79 347.65 554.31 343.21 549.87 337.74 549.87 332.26 549.87 327.82 554.31 327.82 559.79 327.82 559.79 327.82 592.17 327.82 592.17 327.82 592.17 240.35 592.17 240.35 592.17 240.35 592.17 231.88 550.89 231.88 550.89 235.42 547.62 238.21 543.54 239.93 538.95 243.32 541.27 247.33 542.53 251.47 542.53 252.15 542.53 252.83 542.5 253.51 542.43 259.65 541.82 265.12 538.54 268.54 533.41 268.54 533.41 299.72 486.64 299.72 486.64 299.72 486.64 377.98 507.98 377.98 507.98 392.03 511.81 401.85 524.66 401.85 539.22Z" fill="rgb(0,0,0)"/></g></svg>